<?xml version="1.0" encoding="UTF-8"?>
<svg version="1.1" xmlns="http://www.w3.org/2000/svg" width="1960" height="2000">
<path d="M0 0 C4.60068573 0.00461859 9.20110628 -0.00225873 13.80175781 -0.02050781 C43.03030583 -0.13526623 71.94496733 0.59391918 101.05273438 3.31567383 C102.20735168 3.4203598 103.36196899 3.52504578 104.55157471 3.63290405 C110.68746191 4.19549188 116.80886653 4.84214172 122.92773438 5.56567383 C123.81210175 5.66827515 124.69646912 5.77087646 125.6076355 5.87658691 C186.94483854 13.0414906 247.3834346 26.26629398 306.01727295 45.64434814 C308.01742086 46.3040269 310.01941416 46.95778745 312.02197266 47.61010742 C377.43822329 68.97509146 440.21305554 98.74793949 499.05273438 134.31567383 C501.14507328 135.57236576 503.23751891 136.82888003 505.33007812 138.08520508 C515.37259113 144.13438429 525.31114529 150.28717033 534.98828125 156.90649414 C537.39455424 158.54899742 539.80956875 160.17827808 542.22460938 161.80786133 C553.2237282 169.24657174 564.09992896 176.82772506 574.81103516 184.67553711 C577.14593079 186.38386088 579.48775643 188.08239356 581.83007812 189.78051758 C590.86020308 196.35168403 599.66037489 203.12457604 608.27929688 210.22583008 C611.88484941 213.19407484 615.55363017 216.07416874 619.24023438 218.94067383 C625.42033258 223.76374105 631.41905584 228.77326343 637.36572266 233.88012695 C639.1531405 235.40111348 640.95857444 236.8985684 642.76757812 238.39379883 C658.6250414 251.5722039 658.6250414 251.5722039 660.24023438 259.69067383 C660.43103077 267.65764564 655.74617364 273.88760982 650.48120117 279.47070312 C648.66772405 281.29008886 646.84057653 283.09592277 645.00195312 284.88989258 C644.01832565 285.86670825 643.0357456 286.84457964 642.05415344 287.82344055 C639.48569704 290.37859431 636.90219614 292.91799341 634.31542969 295.45458984 C632.22017953 297.51444287 630.13611825 299.58541378 628.05253887 301.65706158 C623.7176648 305.96622769 619.3739234 310.26658991 615.01245117 314.54882812 C614.24587692 315.30254196 613.47930267 316.0562558 612.6894989 316.83280945 C610.64009112 318.76259936 608.5669287 320.60252535 606.43237305 322.4339323 C601.88056488 326.40996086 597.60597672 330.62606527 593.3417511 334.90640259 C592.5013153 335.74598397 591.66087949 336.58556535 590.79497594 337.45058858 C588.4835693 339.76064143 586.17440023 342.07290322 583.86619174 344.38615084 C581.36837654 346.88830994 578.86764566 349.38755219 576.36727905 351.88716125 C572.04140207 356.21251539 567.71735132 360.53968817 563.39455605 364.8681221 C557.13918148 371.13165027 550.88102226 377.39239014 544.62219658 383.65246956 C534.45898167 393.81787016 524.2979988 403.98549876 514.13842773 414.15454102 C504.28543107 424.01671342 494.43138767 433.87783799 484.57592773 443.73754883 C483.96852244 444.34521684 483.36111716 444.95288485 482.73530564 445.57896705 C479.68720911 448.62836894 476.63909178 451.67775003 473.59096396 454.72712064 C452.59025322 475.73643605 431.59176018 496.74796609 410.59553528 517.76176453 C409.26884859 519.0895606 409.26884859 519.0895606 407.91536015 520.44418085 C406.28567138 522.07524544 404.65599459 523.706322 403.02633268 525.33741343 C401.63266092 526.73228037 400.23875125 528.12690967 398.84453452 529.52123189 C397.7363502 530.63105009 396.62973418 531.74243977 395.52565801 532.85634494 C388.38152222 540.05595771 388.38152222 540.05595771 383.95117188 540.55004883 C374.04220231 540.07332864 367.80967529 532.25045067 360.92773438 525.91333008 C355.37826892 520.89920708 349.68813446 515.9004882 343.36523438 511.87817383 C342.22054688 511.10473633 342.22054688 511.10473633 341.05273438 510.31567383 C341.05273438 509.65567383 341.05273438 508.99567383 341.05273438 508.31567383 C340.49070312 508.04754883 339.92867187 507.77942383 339.34960938 507.50317383 C336.89722791 506.23527593 334.61345755 504.82595041 332.30273438 503.31567383 C331.50351563 502.80004883 330.70429687 502.28442383 329.88085938 501.75317383 C328.9759375 501.04161133 328.9759375 501.04161133 328.05273438 500.31567383 C328.05273438 499.65567383 328.05273438 498.99567383 328.05273438 498.31567383 C327.49384521 498.05246338 326.93495605 497.78925293 326.35913086 497.51806641 C323.82165412 496.19520487 321.51882601 494.68378427 319.15039062 493.07739258 C318.18858887 492.42867188 317.22678711 491.77995117 316.23583984 491.11157227 C315.20604004 490.41580078 314.17624023 489.7200293 313.11523438 489.00317383 C294.92122221 476.81178972 276.44493892 465.50239786 257.05273438 455.31567383 C256.14281738 454.83275879 255.23290039 454.34984375 254.29541016 453.85229492 C179.59945508 414.41736006 94.9075047 395.56926077 -140.94726562 410.31567383 C-141.60795044 410.47209351 -142.26863525 410.62851318 -142.94934082 410.78967285 C-194.16559978 422.9688921 -244.28105734 443.16223641 -289.94726562 469.31567383 C-290.69717773 469.74299805 -291.44708984 470.17032227 -292.21972656 470.6105957 C-309.72251239 480.62334511 -326.62365616 491.48105696 -342.94726562 503.31567383 C-343.71039062 503.86481445 -344.47351563 504.41395508 -345.25976562 504.97973633 C-356.85811139 513.33512358 -368.04585782 522.07034431 -378.94726562 531.31567383 C-379.58615723 531.85546875 -380.22504883 532.39526367 -380.88330078 532.95141602 C-395.38528336 545.23869974 -409.05531502 558.33809737 -422.50976562 571.75317383 C-423.02691132 572.26764069 -423.54405701 572.78210754 -424.07687378 573.31216431 C-429.92135783 579.13362989 -435.5888558 585.038104 -440.94726562 591.31567383 C-442.4017208 592.92335755 -443.85947457 594.52807097 -445.32226562 596.12817383 C-450.05302655 601.3774836 -454.51723614 606.81191328 -458.94726562 612.31567383 C-459.8726497 613.4488108 -460.79844956 614.58160832 -461.72460938 615.71411133 C-468.95318058 624.59740121 -475.73466058 633.75265419 -482.36230469 643.09106445 C-483.86556453 645.20100032 -485.38426729 647.2987688 -486.90820312 649.39379883 C-542.0099398 725.59616702 -578.65072359 817.27805877 -598.19726562 996.87817383 C-598.19794037 998.01473419 -598.19861511 999.15129456 -598.1993103 1000.32229614 C-598.16752783 1034.32627046 -595.13921941 1067.7295286 -589.94726562 1101.31567383 C-589.75938477 1102.5407666 -589.57150391 1103.76585937 -589.37792969 1105.02807617 C-586.18730628 1125.33488702 -581.44414381 1145.29121549 -576.46813965 1165.22198486 C-575.99508971 1167.12344161 -575.52982031 1169.0268298 -575.06542969 1170.93041992 C-570.50171414 1189.46737223 -563.46568176 1206.82503605 -555.94726562 1224.31567383 C-555.43421875 1225.51675781 -554.92117188 1226.7178418 -554.39257812 1227.95532227 C-541.89519111 1257.03764841 -527.97094738 1285.78428625 -511.47021484 1312.81665039 C-510.01832201 1315.19907665 -508.59082862 1317.59436056 -507.16992188 1319.99536133 C-494.35720696 1341.50500758 -479.76608565 1361.92070508 -463.94726562 1381.31567383 C-463.24214844 1382.19481445 -462.53703125 1383.07395508 -461.81054688 1383.97973633 C-457.15213692 1389.75193714 -452.31061015 1395.30011853 -447.28710938 1400.75708008 C-445.27820715 1402.95379286 -443.3221245 1405.18116752 -441.38476562 1407.44067383 C-438.02739378 1411.32815702 -434.37696549 1414.88053573 -430.66992188 1418.43286133 C-428.94726562 1420.31567383 -428.94726562 1420.31567383 -428.94726562 1422.31567383 C-428.38523437 1422.53868164 -427.82320312 1422.76168945 -427.24414062 1422.99145508 C-424.25515106 1424.71469906 -422.45407296 1426.8977832 -420.19726562 1429.50317383 C-416.6682456 1433.50459259 -413.0264775 1437.13939503 -408.94335938 1440.57348633 C-406.66934575 1442.55824186 -404.56506039 1444.66529761 -402.44726562 1446.81567383 C-398.43970335 1450.86406017 -394.28011941 1454.62149866 -389.94726562 1458.31567383 C-388.9298248 1459.19659123 -387.91294284 1460.07815434 -386.89648438 1460.96020508 C-372.08332865 1473.78439855 -356.83720905 1485.85052488 -340.94726562 1497.31567383 C-340.22394043 1497.8404834 -339.50061523 1498.36529297 -338.75537109 1498.90600586 C-327.77776418 1506.85600342 -316.48607839 1514.20837853 -304.94726562 1521.31567383 C-304.30611816 1521.71351074 -303.6649707 1522.11134766 -303.00439453 1522.52124023 C-231.97772149 1566.51010861 -150.7783337 1593.69079093 -0.57226562 1605.56567383 C1.1171666 1605.56718445 1.1171666 1605.56718445 2.84072876 1605.56872559 C68.99883671 1605.5291723 133.93306556 1596.28845153 197.05273438 1576.31567383 C198.0959082 1575.98986328 199.13908203 1575.66405273 200.21386719 1575.32836914 C224.45349097 1567.72146281 248.06256473 1558.10598601 271.05273438 1547.31567383 C271.98263184 1546.88351562 272.9125293 1546.45135742 273.87060547 1546.00610352 C302.66651682 1532.5935323 332.82471164 1518.5302857 357.06054688 1497.73754883 C360.05273438 1495.31567383 360.05273438 1495.31567383 362.05273438 1495.31567383 C362.05273438 1494.65567383 362.05273438 1493.99567383 362.05273438 1493.31567383 C363.49414062 1492.04614258 363.49414062 1492.04614258 365.61523438 1490.50317383 C386.29128057 1474.82679559 406.64315643 1456.14189139 423.36523438 1436.28442383 C426.43647515 1432.70130959 429.69714448 1429.28184983 432.91601562 1425.83129883 C435.05394743 1423.52562495 435.05394743 1423.52562495 436.03320312 1421.30004883 C437.50756727 1418.43040521 439.75560741 1416.56995625 442.05273438 1414.31567383 C464.4484249 1388.68786867 482.02920799 1358.70424095 497.05273438 1328.31567383 C497.407146 1327.60701172 497.76155762 1326.89834961 498.12670898 1326.16821289 C512.86512382 1296.57277822 526.65299703 1261.91624873 533.05273438 1229.31567383 C533.40335938 1228.26379883 533.75398438 1227.21192383 534.11523438 1226.12817383 C535.52705724 1220.38676086 536.07226548 1214.89133135 533.86523438 1209.31567383 C530.36679643 1205.45532851 526.03847966 1204.96496688 521.05273438 1204.31567383 C517.29916202 1204.17276806 513.54861127 1204.1863156 509.79272461 1204.19824219 C508.65674646 1204.19809931 507.52076832 1204.19795643 506.35036659 1204.19780922 C502.54149473 1204.1991715 498.73268745 1204.2083715 494.92382812 1204.21801758 C493.56944751 1204.21999506 492.21506654 1204.22174639 490.86068535 1204.22327995 C468.78992481 1204.24858328 446.72039399 1204.3942312 424.65039062 1204.56958008 C338.65864538 1205.24905711 252.67393204 1205.3858845 150.47221118 1205.04894692 C140.45676554 1205.01502158 130.44131447 1204.9851374 120.42584951 1204.95754468 C106.40566096 1204.91885647 92.38552514 1204.87282723 78.36540377 1204.81445694 C71.50990954 1204.78601379 64.65443607 1204.76029071 57.79890442 1204.74274063 C51.45716676 1204.72605447 45.11553734 1204.69998879 38.77386653 1204.66654861 C36.46875197 1204.65594296 34.16361943 1204.6486278 31.85848343 1204.6449281 C28.71486796 1204.63933685 25.57154088 1204.62159444 22.42799377 1204.60087585 C21.5309202 1204.60212829 20.63384663 1204.60338073 19.709589 1204.60467112 C12.37501604 1204.53515051 4.40819544 1204.30155895 -2.00976562 1200.50317383 C-8.75100873 1192.89209291 -7.10280028 1180.67313288 -7.11894226 1171.16049194 C-7.12494703 1169.71988331 -7.131373 1168.27927638 -7.13818198 1166.83867133 C-7.15558168 1162.89323106 -7.16690879 1158.94779348 -7.17719233 1155.00232911 C-7.18934228 1150.74175356 -7.20708626 1146.48120065 -7.22406006 1142.22064209 C-7.25633545 1133.87772366 -7.28318437 1125.53479631 -7.30786284 1117.19185226 C-7.32794662 1110.40726089 -7.34954365 1103.62267605 -7.37220192 1096.8380928 C-7.43629831 1077.58815424 -7.49620339 1058.33820901 -7.55088403 1039.08824138 C-7.55383107 1038.05099429 -7.55677811 1037.01374719 -7.55981445 1035.94506836 C-7.56276419 1034.90654955 -7.56571392 1033.86803074 -7.56875304 1032.79804166 C-7.61679329 1015.97560642 -7.67487965 999.15322276 -7.73751213 982.3308361 C-7.80175636 965.04360604 -7.85835733 947.75636533 -7.90707999 930.46908438 C-7.93457648 920.76934745 -7.96521005 911.06964411 -8.00409508 901.36994553 C-8.03715259 893.10969541 -8.06309511 884.8494603 -8.07995137 876.58916061 C-8.08874495 872.37882695 -8.1007576 868.16857062 -8.12175941 863.95827866 C-8.14094445 860.09539984 -8.15051223 856.23261483 -8.15278289 852.36969014 C-8.15637164 850.32847205 -8.16989999 848.28727867 -8.18391722 846.24610555 C-8.16353283 823.5456823 -8.16353283 823.5456823 -3.25976562 817.12817383 C2.75670635 811.30246804 10.39726442 810.19126012 18.48434275 810.189174 C19.79455979 810.18641425 21.10477682 810.18365451 22.4546974 810.18081114 C23.91000269 810.18279902 25.36530786 810.18487848 26.82061291 810.18703938 C28.37194319 810.18569309 29.92327315 810.18390941 31.47460249 810.18172714 C35.7586923 810.17698407 40.04276093 810.17850302 44.32685181 810.18100491 C48.97971268 810.18263389 53.63256893 810.17850058 58.28542835 810.17509574 C66.44730482 810.16993368 74.60917537 810.16852593 82.77105331 810.16955185 C94.90807774 810.17107372 107.04509558 810.1669218 119.18211872 810.16167722 C142.11818425 810.1519935 165.05424754 810.1491926 187.99031486 810.14862017 C205.69987616 810.14816106 223.40943657 810.146105 241.11899757 810.14291954 C246.21213064 810.14202203 251.30526372 810.14113222 256.39839679 810.14024466 C257.66447918 810.14002361 258.93056156 810.13980257 260.23501008 810.13957482 C295.86026212 810.13341838 331.48551386 810.12946859 367.11076641 810.1299181 C368.46819555 810.12993388 369.8256247 810.12994961 371.18305384 810.12996531 C377.31182865 810.13003869 383.44060347 810.13012686 389.56937828 810.13021919 C392.30239195 810.13026031 395.03540562 810.13030046 397.76841928 810.1303405 C399.13634277 810.1303609 400.50426625 810.13038192 401.87218974 810.13040356 C445.12597829 810.13108379 488.37975866 810.12376726 531.63354492 810.10986328 C542.53069144 810.10636229 553.42783797 810.10289285 564.32498455 810.09959888 C564.99595433 810.09939601 565.66692411 810.09919314 566.3582263 810.09898411 C602.5832428 810.08809731 638.80825979 810.08612176 675.03327781 810.0868265 C680.12798266 810.08690114 685.2226875 810.08694984 690.31739235 810.08698082 C691.57188625 810.08699247 692.82638016 810.08700413 694.11888903 810.08701614 C714.32842505 810.08704694 734.53795417 810.08065438 754.74748814 810.07204856 C775.05081421 810.06358148 795.35413016 810.06257469 815.65745702 810.06915788 C827.72634896 810.07285989 839.79521022 810.07100176 851.86409893 810.06121554 C859.92147002 810.05523298 867.97881879 810.05649174 876.03618884 810.06368603 C880.62991893 810.06758216 885.22358945 810.06830126 889.81731542 810.06022868 C893.99723709 810.05294747 898.17704961 810.05488916 902.35696642 810.06415255 C903.85884586 810.06587241 905.36073386 810.06425024 906.86260458 810.05885134 C928.66779172 809.98572298 928.66779172 809.98572298 936.05273438 816.31567383 C944.9379918 826.21638924 944.49083601 845.25609435 945.99023438 857.87817383 C946.18391098 859.48727127 946.18391098 859.48727127 946.38150024 861.12887573 C952.84537909 914.97466077 956.6086545 968.82722184 956.44384766 1023.0703125 C956.42674723 1028.74521181 956.43695766 1034.41968893 956.45416927 1040.09457397 C956.53161399 1070.27587621 955.4856559 1100.23115343 953.05273438 1130.31567383 C952.99736008 1131.00287632 952.94198578 1131.69007881 952.88493347 1132.39810562 C952.27912649 1139.84165659 951.55941428 1147.26781755 950.74023438 1154.69067383 C950.63568939 1155.66097534 950.53114441 1156.63127686 950.4234314 1157.63098145 C942.83997239 1227.78518857 928.6369134 1297.14643975 906.72149658 1364.25720215 C906.07517298 1366.24660709 905.43851961 1368.2387855 904.80615234 1370.23266602 C894.51289315 1402.6478092 882.0282708 1434.31926338 868.05273438 1465.31567383 C867.29259033 1467.00732666 867.29259033 1467.00732666 866.51708984 1468.7331543 C854.11634586 1496.2046589 840.90688066 1523.45714822 825.69628906 1549.49047852 C823.89259306 1552.59094943 822.11580895 1555.70594115 820.34179688 1558.82348633 C797.26110489 1599.30134536 771.1126168 1638.65047512 741.05273438 1674.31567383 C740.16332224 1675.37940132 739.27400496 1676.44320813 738.38476562 1677.50708008 C733.46766422 1683.37059774 728.47578812 1689.14905781 723.31835938 1694.80395508 C721.44409227 1696.88180636 719.60228937 1698.98047642 717.76757812 1701.09301758 C714.05891658 1705.3392022 710.23454318 1709.46591355 706.36523438 1713.56567383 C705.67042969 1714.30221191 704.975625 1715.03875 704.25976562 1715.79760742 C696.55768416 1723.93328492 688.84890388 1732.07291026 680.31054688 1739.34301758 C677.15860259 1742.09687894 674.11123086 1744.95883204 671.05273438 1747.81567383 C666.81641826 1751.76853341 662.55300609 1755.66661708 658.16601562 1759.45239258 C655.29321135 1761.9853457 652.4873052 1764.58797969 649.67773438 1767.19067383 C641.62931717 1774.63791177 633.56024509 1781.97351024 625.02929688 1788.87036133 C622.30079402 1791.11188729 619.6233134 1793.39888424 616.95581055 1795.71191406 C610.48611946 1801.31992722 603.86487691 1806.66340447 597.02734375 1811.81811523 C594.71867968 1813.56902342 592.42475388 1815.33843038 590.13085938 1817.10864258 C580.28962969 1824.68687708 570.38189851 1832.07638622 560.05371094 1838.97827148 C557.94186511 1840.38977606 555.83702872 1841.81137044 553.73242188 1843.23364258 C528.95158355 1859.92687448 503.4231362 1875.26723444 477.05273438 1889.31567383 C476.04178711 1889.85804687 475.03083984 1890.40041992 473.98925781 1890.95922852 C423.7137994 1917.85869423 370.51422052 1938.23504452 315.94303894 1954.52775574 C312.433185 1955.57923139 308.95371554 1956.67325546 305.50195312 1957.90161133 C299.34771616 1959.99088075 292.95400879 1961.28111268 286.62475586 1962.72540283 C281.84099673 1963.82326079 277.06482866 1964.95360083 272.28710938 1966.07739258 C270.22335698 1966.5613285 268.15955444 1967.04505059 266.09570312 1967.52856445 C262.92257905 1968.27199482 259.7495123 1969.01566374 256.57666016 1969.76025391 C253.45949006 1970.4917378 250.34207669 1971.22217657 247.22460938 1971.95239258 C246.2756781 1972.17529465 245.32674683 1972.39819672 244.34906006 1972.62785339 C243.46333313 1972.83509537 242.5776062 1973.04233734 241.66503906 1973.25585938 C240.89246765 1973.43698776 240.11989624 1973.61811615 239.32391357 1973.80473328 C236.9071189 1974.34843252 234.48328362 1974.83748388 232.05273438 1975.31567383 C230.85382568 1975.55882324 229.65491699 1975.80197266 228.41967773 1976.05249023 C177.33706083 1986.39795856 126.01625167 1993.94992637 74.05782509 1998.1529026 C72.22625613 1998.30158751 70.39493605 1998.45333008 68.56364441 1998.60539246 C43.8320814 2000.59949256 19.14198107 2000.58997204 -5.65557861 2000.5112915 C-9.98988721 2000.50039572 -14.32416452 2000.50082571 -18.65848446 2000.50142956 C-22.89596926 2000.50115574 -27.13343437 2000.49564338 -31.37091255 2000.48842812 C-33.36365168 2000.4852924 -35.35639299 2000.48328629 -37.34913445 2000.48253441 C-48.03430433 2000.47406452 -58.64710868 2000.27549691 -69.30812073 1999.52851868 C-73.78985854 1999.26639259 -78.23821663 1999.27943616 -82.72460938 1999.37817383 C-84.94726562 1999.31567383 -84.94726562 1999.31567383 -86.94726562 1998.31567383 C-88.30531668 1998.11570088 -89.6706636 1997.96400978 -91.03759766 1997.83837891 C-91.89090164 1997.75746506 -92.74420563 1997.67655121 -93.62336731 1997.59318542 C-95.02506416 1997.46548515 -95.02506416 1997.46548515 -96.45507812 1997.33520508 C-98.4744259 1997.14264364 -100.4937104 1996.94941773 -102.51293945 1996.75561523 C-103.58170319 1996.65388 -104.65046692 1996.55214478 -105.75161743 1996.44732666 C-141.52942126 1993.00866446 -176.76625264 1987.65011251 -211.94726562 1980.31567383 C-213.1615625 1980.06317871 -214.37585938 1979.81068359 -215.62695312 1979.55053711 C-278.59720281 1966.31086523 -341.45112299 1946.62325235 -399.93603516 1919.68139648 C-403.93627823 1917.86711403 -407.97603251 1916.15283335 -412.01904297 1914.43652344 C-421.59285357 1910.36322383 -430.82177544 1905.90517535 -439.97460938 1900.96411133 C-446.70314615 1897.343485 -453.56300415 1893.98303045 -460.41381836 1890.60131836 C-470.93278648 1885.38690922 -481.13395748 1879.69067919 -491.25976562 1873.75317383 C-492.29665527 1873.14602539 -493.33354492 1872.53887695 -494.40185547 1871.91333008 C-496.54296759 1870.65878999 -498.68359344 1869.40341959 -500.82373047 1868.1472168 C-503.75403195 1866.42897999 -506.68810318 1864.71737101 -509.62304688 1863.00708008 C-525.97574026 1853.44834375 -542.01476056 1843.40492359 -557.71679688 1832.80908203 C-560.77400481 1830.74813485 -563.85136219 1828.73249221 -566.97460938 1826.77270508 C-567.9578418 1826.15359253 -567.9578418 1826.15359253 -568.9609375 1825.52197266 C-570.21490523 1824.7356967 -571.47257093 1823.95527842 -572.734375 1823.18164062 C-574.17276262 1822.27846213 -575.56562175 1821.30347469 -576.94726562 1820.31567383 C-576.94726562 1819.65567383 -576.94726562 1818.99567383 -576.94726562 1818.31567383 C-577.68879883 1818.04416504 -578.43033203 1817.77265625 -579.19433594 1817.49291992 C-581.8036212 1816.37710106 -583.73991969 1815.18220567 -585.99414062 1813.47973633 C-586.74912842 1812.91544922 -587.50411621 1812.35116211 -588.28198242 1811.76977539 C-589.07902588 1811.16617187 -589.87606934 1810.56256836 -590.69726562 1809.94067383 C-597.98090853 1804.4820264 -605.3384579 1799.16646772 -612.86621094 1794.04858398 C-614.59447099 1792.85276768 -616.27654305 1791.59064266 -617.94726562 1790.31567383 C-617.94726562 1789.65567383 -617.94726562 1788.99567383 -617.94726562 1788.31567383 C-618.51316406 1788.05915039 -619.0790625 1787.80262695 -619.66210938 1787.53833008 C-623.04661709 1785.72747382 -625.85329893 1783.28565356 -628.82617188 1780.87426758 C-630.95579914 1779.14231793 -630.95579914 1779.14231793 -633.94726562 1778.31567383 C-635.63954682 1776.67502155 -637.30219454 1775.00365981 -638.94726562 1773.31567383 C-640.97377378 1771.54180727 -643.00722046 1769.79291552 -645.07226562 1768.06567383 C-645.92268433 1767.34951904 -645.92268433 1767.34951904 -646.7902832 1766.61889648 C-650.37629878 1763.60674364 -653.99699139 1760.64022051 -657.63476562 1757.69067383 C-662.90084953 1753.40432646 -667.92584354 1748.88365646 -672.94726562 1744.31567383 C-677.04009327 1740.63672763 -681.17106629 1737.12208401 -685.57226562 1733.81567383 C-688.98076178 1731.20540669 -691.6603985 1728.4997097 -694.33656311 1725.1598053 C-695.9946556 1723.26141593 -697.7373291 1721.68753412 -699.65991211 1720.05957031 C-703.77481333 1716.50587459 -707.6452034 1712.76274783 -711.48242188 1708.91333008 C-712.16477402 1708.23193466 -712.84712616 1707.55053925 -713.55015564 1706.84849548 C-714.98070999 1705.41861642 -716.4100233 1703.98749472 -717.83813477 1702.55517578 C-720.00425636 1700.38369672 -722.17566736 1698.21761058 -724.34765625 1696.05200195 C-725.7470655 1694.65193181 -727.14616446 1693.25155144 -728.54492188 1691.85083008 C-729.18365738 1691.2141188 -729.82239288 1690.57740753 -730.48048401 1689.92140198 C-734.25680098 1686.125708 -737.85107846 1682.22038295 -741.34132385 1678.159729 C-744.07505212 1675.02067013 -746.95921904 1672.02378243 -749.82226562 1669.00317383 C-754.73766625 1663.78100749 -759.39246659 1658.46668151 -763.86914062 1652.86254883 C-766.00445016 1650.24559053 -768.23256926 1647.74724604 -770.50976562 1645.25317383 C-774.88391331 1640.44085591 -778.93930203 1635.43454037 -782.94726562 1630.31567383 C-783.8114695 1629.22032226 -784.67607481 1628.12528733 -785.54101562 1627.03051758 C-788.35348228 1623.46699449 -791.15196051 1619.89266605 -793.94726562 1616.31567383 C-794.36234375 1615.78603027 -794.77742187 1615.25638672 -795.20507812 1614.71069336 C-802.17083194 1605.80969584 -808.80566215 1596.68518058 -815.38525391 1587.49633789 C-816.84950981 1585.45214693 -818.31769223 1583.41084387 -819.78710938 1581.37036133 C-832.94726562 1563.06868654 -832.94726562 1563.06868654 -832.94726562 1560.31567383 C-833.60726562 1560.31567383 -834.26726562 1560.31567383 -834.94726562 1560.31567383 C-835.24439453 1559.7667749 -835.54152344 1559.21787598 -835.84765625 1558.65234375 C-838.84934692 1553.17005685 -842.06505011 1547.88201818 -845.44726562 1542.62817383 C-855.89877452 1526.22143115 -865.66090395 1509.40646429 -874.94726562 1492.31567383 C-875.52798828 1491.24978027 -876.10871094 1490.18388672 -876.70703125 1489.08569336 C-890.33251899 1464.05005259 -890.33251899 1464.05005259 -895.51416016 1452.55175781 C-896.92130671 1449.43114423 -898.42160094 1446.43999809 -900.15429688 1443.49145508 C-901.94726562 1440.31567383 -901.94726562 1440.31567383 -901.94726562 1438.31567383 C-902.60726562 1437.98567383 -903.26726562 1437.65567383 -903.94726562 1437.31567383 C-904.85766602 1435.75952148 -904.85766602 1435.75952148 -905.79492188 1433.72973633 C-906.32508911 1432.5949585 -906.32508911 1432.5949585 -906.8659668 1431.43725586 C-907.43214722 1430.20144775 -907.43214722 1430.20144775 -908.00976562 1428.94067383 C-908.81946591 1427.20099947 -909.62936747 1425.46141878 -910.43945312 1423.72192383 C-910.85420898 1422.82602539 -911.26896484 1421.93012695 -911.69628906 1421.00708008 C-913.27504555 1417.61047362 -914.88137879 1414.22740974 -916.49072266 1410.84521484 C-922.55373165 1398.10202757 -928.43823985 1385.30895031 -933.94726562 1372.31567383 C-934.41753174 1371.23721191 -934.88779785 1370.15875 -935.37231445 1369.04760742 C-936.88696909 1365.51322917 -938.23072413 1361.93136473 -939.54101562 1358.31567383 C-939.89021057 1357.35661133 -939.89021057 1357.35661133 -940.24645996 1356.37817383 C-941.22926324 1353.67871887 -942.20744562 1350.97759607 -943.18603516 1348.27661133 C-943.9069131 1346.28904101 -944.63016759 1344.30234626 -945.35351562 1342.31567383 C-945.77955078 1341.14004883 -946.20558594 1339.96442383 -946.64453125 1338.75317383 C-947.5381749 1336.39513361 -948.48955389 1334.05841044 -949.48828125 1331.74291992 C-950.79303335 1328.67797516 -951.88470735 1325.65427754 -952.88476562 1322.47973633 C-953.2225 1321.4149707 -953.56023438 1320.35020508 -953.90820312 1319.25317383 C-954.25109375 1318.16004883 -954.59398437 1317.06692383 -954.94726562 1315.94067383 C-955.63426508 1313.76603647 -956.32175672 1311.59155453 -957.00976562 1309.41723633 C-957.34234375 1308.36181641 -957.67492187 1307.30639648 -958.01757812 1306.21899414 C-958.77605462 1303.85034853 -959.56922957 1301.50085915 -960.38476562 1299.15161133 C-974.90166926 1255.85532542 -985.47996242 1209.3313072 -991.50976562 1164.12817383 C-991.79239635 1161.37172955 -991.79239635 1161.37172955 -992.94726562 1159.31567383 C-993.25707736 1156.89852882 -993.52090323 1154.49011363 -993.75976562 1152.06567383 C-994.79662289 1142.08526872 -996.15175812 1132.1522937 -997.53833008 1122.21508789 C-998.49994831 1115.19133562 -999.25512513 1108.20768873 -999.69897461 1101.13134766 C-999.93469077 1098.45827541 -1000.41103984 1095.94149697 -1000.94726562 1093.31567383 C-1001.07254016 1091.8897074 -1001.16684242 1090.46064707 -1001.22851562 1089.03051758 C-1001.26589844 1088.25256836 -1001.30328125 1087.47461914 -1001.34179688 1086.6730957 C-1001.4122793 1085.0559156 -1001.48259098 1083.43872805 -1001.55273438 1081.8215332 C-1001.60880859 1080.65654297 -1001.60880859 1080.65654297 -1001.66601562 1079.46801758 C-1001.69630859 1078.76668701 -1001.72660156 1078.06535645 -1001.7578125 1077.34277344 C-1001.88898999 1075.32765455 -1001.88898999 1075.32765455 -1002.43960571 1073.47747803 C-1003.43204085 1069.2513211 -1003.34553377 1064.87797245 -1003.50195312 1060.55395508 C-1003.54399872 1059.39285721 -1003.58604431 1058.23175934 -1003.62936401 1057.03547668 C-1004.19798178 1038.99688077 -1004.09712666 1020.94439448 -1004.07763672 1002.89892578 C-1004.07192235 997.56027366 -1004.07524456 992.22167167 -1004.08120918 986.88302135 C-1004.08486403 982.6916518 -1004.08365421 978.50029367 -1004.08108139 974.30892372 C-1004.08042661 972.34264431 -1004.08118809 970.37636377 -1004.08356094 968.41008568 C-1004.10040167 950.55955464 -1003.58031586 932.72855039 -1002.00976562 914.94067383 C-1001.92331787 913.93359375 -1001.83687012 912.92651367 -1001.74780273 911.88891602 C-1001.15405 905.16438365 -1000.3994426 898.48372005 -999.50585938 891.79223633 C-998.89100029 887.05348515 -998.42441329 882.30104651 -997.94140625 877.54736328 C-995.79181641 856.54479008 -992.6220115 835.77445324 -988.49462891 815.0715332 C-987.89562308 812.05566443 -987.30992341 809.03735345 -986.72460938 806.01879883 C-984.70090585 795.65451243 -982.57391617 785.36342654 -979.91210938 775.14379883 C-978.82335564 770.82404716 -977.88207318 766.48317553 -976.94726562 762.12817383 C-975.5361202 755.60075389 -973.84058067 749.27354573 -971.77929688 742.91723633 C-971.07610529 740.71852461 -970.49768449 738.55533458 -969.94726562 736.31567383 C-966.97693165 724.45764657 -963.35792947 712.83832657 -959.62133789 701.20214844 C-958.64251027 698.1523047 -957.67045133 695.10036545 -956.69921875 692.0480957 C-951.22688355 674.90673789 -945.56766185 657.85412353 -938.75976562 641.19067383 C-938.34791016 640.17231445 -937.93605469 639.15395508 -937.51171875 638.10473633 C-936.70702725 636.11532468 -935.90062544 634.12660374 -935.09228516 632.13867188 C-933.98689468 629.41337761 -932.89268071 626.6838951 -931.80273438 623.95239258 C-930.37437738 620.37597213 -928.92742405 616.80855437 -927.44726562 613.25317383 C-927.06570313 612.33407227 -926.68414063 611.4149707 -926.29101562 610.46801758 C-922.71677465 602.08309761 -918.9215565 593.79369566 -915.13476562 585.50317383 C-914.63912109 584.40424805 -914.14347656 583.30532227 -913.6328125 582.1730957 C-910.59808604 575.54512813 -907.26061056 569.2433983 -903.52514648 562.984375 C-901.56933704 559.67647572 -899.83648522 556.3238679 -898.13476562 552.87817383 C-897.80766602 552.21897949 -897.48056641 551.55978516 -897.14355469 550.88061523 C-895.26482019 547.07305837 -893.43760425 543.24356925 -891.63867188 539.39770508 C-886.03066071 527.41917506 -880.0060808 515.76470543 -873.56103516 504.21508789 C-871.89482173 501.22144937 -870.24636096 498.2184938 -868.59960938 495.21411133 C-849.84328202 461.14850784 -828.12375683 428.85982246 -804.34667969 398.10180664 C-801.12124162 393.91331365 -798.05215039 389.68987729 -795.29101562 385.17504883 C-793.4393725 382.61289148 -791.19125735 380.53998142 -788.94726562 378.31567383 C-787.17339907 376.28916567 -785.42450732 374.25571899 -783.69726562 372.19067383 C-783.2198291 371.62372803 -782.74239258 371.05678223 -782.25048828 370.47265625 C-779.23833544 366.88664067 -776.2718123 363.26594806 -773.32226562 359.62817383 C-769.69892067 355.17663575 -765.9276269 350.89184928 -762.06445312 346.64770508 C-760.16675393 344.55743494 -758.29993148 342.44581268 -756.44726562 340.31567383 C-752.3340939 335.6001154 -748.14823846 330.95301813 -743.94726562 326.31567383 C-742.82856079 325.06669312 -742.82856079 325.06669312 -741.68725586 323.79248047 C-731.94813518 313.06186876 -721.65604031 302.87189304 -711.40087891 292.63891602 C-708.71934468 289.96311484 -706.04237767 287.28279618 -703.36668777 284.60115242 C-701.27682104 282.50764992 -699.18455126 280.41656203 -697.09157562 278.32616806 C-696.10381804 277.33906952 -695.11678025 276.35125008 -694.13053131 275.3626442 C-689.11183803 270.33457282 -684.06563448 265.40479024 -678.66078186 260.79107666 C-675.73145916 258.26881809 -672.94602928 255.59277871 -670.13476562 252.94067383 C-665.09160744 248.21694273 -659.92035587 243.74733092 -654.52539062 239.42504883 C-651.92300273 237.29582237 -649.43151061 235.08118026 -646.94726562 232.81567383 C-641.77211746 228.11099368 -636.38523723 223.71131039 -630.94726562 219.31567383 C-629.71606475 218.30484615 -628.48563944 217.29307334 -627.25585938 216.28051758 C-618.69047001 209.24409322 -609.976746 202.45965786 -601.05859375 195.87670898 C-598.87578454 194.26282345 -596.7002841 192.63942613 -594.52539062 191.01489258 C-577.4471378 178.29654247 -560.02924852 166.04247057 -542.03955078 154.64428711 C-539.8611266 153.26097504 -537.6910697 151.86514554 -535.52148438 150.46801758 C-505.52746924 131.237405 -474.15157428 114.07909342 -442.1640625 98.40551758 C-440.59006768 97.63169457 -439.0187148 96.85248741 -437.44921875 96.06958008 C-382.49352072 68.69092908 -323.81662802 48.05309311 -264.36083984 32.92962646 C-262.74229576 32.51790952 -261.12413478 32.10468377 -259.50634766 31.69000244 C-207.35359412 18.32773154 -154.24265641 9.86901137 -100.69726562 4.56567383 C-99.68149445 4.46444214 -98.66572327 4.36321045 -97.61917114 4.25891113 C-90.40014185 3.54758416 -83.17623941 2.91660461 -75.94726562 2.31567383 C-74.87031433 2.22138092 -73.79336304 2.12708801 -72.68377686 2.02993774 C-48.48008948 -0.04172746 -24.27630848 -0.02633885 0 0 Z " fill="#45AB42" transform="translate(1003.947265625,-0.315673828125)"/>
<path d="M0 0 C4.60068573 0.00461859 9.20110628 -0.00225873 13.80175781 -0.02050781 C43.03030583 -0.13526623 71.94496733 0.59391918 101.05273438 3.31567383 C102.20735168 3.4203598 103.36196899 3.52504578 104.55157471 3.63290405 C110.68746191 4.19549188 116.80886653 4.84214172 122.92773438 5.56567383 C123.81210175 5.66827515 124.69646912 5.77087646 125.6076355 5.87658691 C186.94483854 13.0414906 247.3834346 26.26629398 306.01727295 45.64434814 C308.01742086 46.3040269 310.01941416 46.95778745 312.02197266 47.61010742 C377.43822329 68.97509146 440.21305554 98.74793949 499.05273438 134.31567383 C501.14507328 135.57236576 503.23751891 136.82888003 505.33007812 138.08520508 C515.37259113 144.13438429 525.31114529 150.28717033 534.98828125 156.90649414 C537.39455424 158.54899742 539.80956875 160.17827808 542.22460938 161.80786133 C553.2237282 169.24657174 564.09992896 176.82772506 574.81103516 184.67553711 C577.14593079 186.38386088 579.48775643 188.08239356 581.83007812 189.78051758 C590.86020308 196.35168403 599.66037489 203.12457604 608.27929688 210.22583008 C611.88484941 213.19407484 615.55363017 216.07416874 619.24023438 218.94067383 C625.42033258 223.76374105 631.41905584 228.77326343 637.36572266 233.88012695 C639.1531405 235.40111348 640.95857444 236.8985684 642.76757812 238.39379883 C658.6250414 251.5722039 658.6250414 251.5722039 660.24023438 259.69067383 C660.43103077 267.65764564 655.74617364 273.88760982 650.48120117 279.47070312 C648.66772405 281.29008886 646.84057653 283.09592277 645.00195312 284.88989258 C644.01832565 285.86670825 643.0357456 286.84457964 642.05415344 287.82344055 C639.48569704 290.37859431 636.90219614 292.91799341 634.31542969 295.45458984 C632.22017953 297.51444287 630.13611825 299.58541378 628.05253887 301.65706158 C623.7176648 305.96622769 619.3739234 310.26658991 615.01245117 314.54882812 C614.24587692 315.30254196 613.47930267 316.0562558 612.6894989 316.83280945 C610.64009112 318.76259936 608.5669287 320.60252535 606.43237305 322.4339323 C601.88056488 326.40996086 597.60597672 330.62606527 593.3417511 334.90640259 C592.5013153 335.74598397 591.66087949 336.58556535 590.79497594 337.45058858 C588.4835693 339.76064143 586.17440023 342.07290322 583.86619174 344.38615084 C581.36837654 346.88830994 578.86764566 349.38755219 576.36727905 351.88716125 C572.04140207 356.21251539 567.71735132 360.53968817 563.39455605 364.8681221 C557.13918148 371.13165027 550.88102226 377.39239014 544.62219658 383.65246956 C534.45898167 393.81787016 524.2979988 403.98549876 514.13842773 414.15454102 C504.28543107 424.01671342 494.43138767 433.87783799 484.57592773 443.73754883 C483.96852244 444.34521684 483.36111716 444.95288485 482.73530564 445.57896705 C479.68720911 448.62836894 476.63909178 451.67775003 473.59096396 454.72712064 C452.59025322 475.73643605 431.59176018 496.74796609 410.59553528 517.76176453 C409.26884859 519.0895606 409.26884859 519.0895606 407.91536015 520.44418085 C406.28567138 522.07524544 404.65599459 523.706322 403.02633268 525.33741343 C401.63266092 526.73228037 400.23875125 528.12690967 398.84453452 529.52123189 C397.7363502 530.63105009 396.62973418 531.74243977 395.52565801 532.85634494 C388.38152222 540.05595771 388.38152222 540.05595771 383.95117188 540.55004883 C374.04220231 540.07332864 367.80967529 532.25045067 360.92773438 525.91333008 C355.37826892 520.89920708 349.68813446 515.9004882 343.36523438 511.87817383 C342.22054688 511.10473633 342.22054688 511.10473633 341.05273438 510.31567383 C341.05273438 509.65567383 341.05273438 508.99567383 341.05273438 508.31567383 C340.49070312 508.04754883 339.92867187 507.77942383 339.34960938 507.50317383 C336.89722791 506.23527593 334.61345755 504.82595041 332.30273438 503.31567383 C331.50351563 502.80004883 330.70429687 502.28442383 329.88085938 501.75317383 C328.9759375 501.04161133 328.9759375 501.04161133 328.05273438 500.31567383 C328.05273438 499.65567383 328.05273438 498.99567383 328.05273438 498.31567383 C327.49384521 498.05246338 326.93495605 497.78925293 326.35913086 497.51806641 C323.82165412 496.19520487 321.51882601 494.68378427 319.15039062 493.07739258 C318.18858887 492.42867188 317.22678711 491.77995117 316.23583984 491.11157227 C315.20604004 490.41580078 314.17624023 489.7200293 313.11523438 489.00317383 C294.92122221 476.81178972 276.44493892 465.50239786 257.05273438 455.31567383 C256.14281738 454.83275879 255.23290039 454.34984375 254.29541016 453.85229492 C179.59945508 414.41736006 94.9075047 395.56926077 -140.94726562 410.31567383 C-141.60795044 410.47209351 -142.26863525 410.62851318 -142.94934082 410.78967285 C-194.16559978 422.9688921 -244.28105734 443.16223641 -289.94726562 469.31567383 C-290.69717773 469.74299805 -291.44708984 470.17032227 -292.21972656 470.6105957 C-309.72251239 480.62334511 -326.62365616 491.48105696 -342.94726562 503.31567383 C-343.71039062 503.86481445 -344.47351563 504.41395508 -345.25976562 504.97973633 C-356.85811139 513.33512358 -368.04585782 522.07034431 -378.94726562 531.31567383 C-379.58615723 531.85546875 -380.22504883 532.39526367 -380.88330078 532.95141602 C-395.38528336 545.23869974 -409.05531502 558.33809737 -422.50976562 571.75317383 C-423.02691132 572.26764069 -423.54405701 572.78210754 -424.07687378 573.31216431 C-429.92135783 579.13362989 -435.5888558 585.038104 -440.94726562 591.31567383 C-442.4017208 592.92335755 -443.85947457 594.52807097 -445.32226562 596.12817383 C-450.05302655 601.3774836 -454.51723614 606.81191328 -458.94726562 612.31567383 C-459.8726497 613.4488108 -460.79844956 614.58160832 -461.72460938 615.71411133 C-468.95318058 624.59740121 -475.73466058 633.75265419 -482.36230469 643.09106445 C-483.86556453 645.20100032 -485.38426729 647.2987688 -486.90820312 649.39379883 C-542.0099398 725.59616702 -578.65072359 817.27805877 -598.19726562 996.87817383 C-598.19794037 998.01473419 -598.19861511 999.15129456 -598.1993103 1000.32229614 C-598.16752783 1034.32627046 -595.13921941 1067.7295286 -589.94726562 1101.31567383 C-589.75938477 1102.5407666 -589.57150391 1103.76585937 -589.37792969 1105.02807617 C-585.25226484 1131.28598408 -579.07073941 1157.4713717 -571.62329102 1182.98706055 C-569.26127902 1191.19855071 -569.26127902 1191.19855071 -569.94726562 1194.31567383 C-572.15820313 1196.49926758 -572.15820313 1196.49926758 -575.32226562 1198.75317383 C-576.51855954 1199.62552748 -577.71381385 1200.49930799 -578.90820312 1201.37426758 C-579.88225098 1202.077854 -579.88225098 1202.077854 -580.87597656 1202.7956543 C-584.63122533 1205.55145095 -588.28099792 1208.44323413 -591.94726562 1211.31567383 C-597.10152468 1215.33200051 -602.26412176 1219.3366947 -607.44726562 1223.31567383 C-614.86339691 1229.01036937 -622.23925146 1234.75654975 -629.61669922 1240.5012207 C-633.39243829 1243.4408072 -637.16992098 1246.37815098 -640.94726562 1249.31567383 C-642.44727439 1250.48232922 -643.94727438 1251.6489959 -645.44726562 1252.81567383 C-648.44726562 1255.14900716 -651.44726562 1257.48234049 -654.44726562 1259.81567383 C-655.56161987 1260.68240723 -655.56161987 1260.68240723 -656.69848633 1261.56665039 C-658.19438224 1262.73010695 -659.69031308 1263.8935186 -661.1862793 1265.05688477 C-664.99936339 1268.02229381 -668.81178626 1270.98854645 -672.62304688 1273.95629883 C-680.25186054 1279.89550947 -687.89233205 1285.81803349 -695.56054688 1291.70629883 C-701.93448204 1296.60962009 -708.27173296 1301.56052243 -714.61669922 1306.5012207 C-718.39243829 1309.4408072 -722.16992098 1312.37815098 -725.94726562 1315.31567383 C-727.44727439 1316.48232922 -728.94727438 1317.6489959 -730.44726562 1318.81567383 C-733.44726562 1321.14900716 -736.44726562 1323.48234049 -739.44726562 1325.81567383 C-740.56161987 1326.68240723 -740.56161987 1326.68240723 -741.69848633 1327.56665039 C-743.19438224 1328.73010695 -744.69031308 1329.8935186 -746.1862793 1331.05688477 C-749.99936339 1334.02229381 -753.81178626 1336.98854645 -757.62304688 1339.95629883 C-765.25186054 1345.89550947 -772.89233205 1351.81803349 -780.56054688 1357.70629883 C-786.93448204 1362.60962009 -793.27173296 1367.56052243 -799.61669922 1372.5012207 C-804.13804761 1376.02129836 -808.66176087 1379.53833607 -813.18505859 1383.0559082 C-816.99853153 1386.02166595 -820.81137517 1388.98822633 -824.62304688 1391.95629883 C-832.25186054 1397.89550947 -839.89233205 1403.81803349 -847.56054688 1409.70629883 C-853.92124463 1414.59943686 -860.24536458 1419.54001486 -866.57714844 1424.47045898 C-870.55352104 1427.56619695 -874.53173478 1430.65956721 -878.50976562 1433.75317383 C-879.927743 1434.85602732 -881.34571203 1435.95889154 -882.76367188 1437.06176758 C-883.44187988 1437.58496582 -884.12008789 1438.10816406 -884.81884766 1438.6472168 C-886.35216376 1439.84917622 -887.86667363 1441.0752654 -889.36865234 1442.31616211 C-890.16674316 1442.96697754 -890.96483398 1443.61779297 -891.78710938 1444.28833008 C-892.51148193 1444.89040283 -893.23585449 1445.49247559 -893.98217773 1446.11279297 C-894.63065674 1446.50974365 -895.27913574 1446.90669434 -895.94726562 1447.31567383 C-898.94726562 1446.31567383 -898.94726562 1446.31567383 -900.63476562 1443.37817383 C-901.94726562 1440.31567383 -901.94726562 1440.31567383 -901.94726562 1438.31567383 C-902.60726562 1437.98567383 -903.26726562 1437.65567383 -903.94726562 1437.31567383 C-904.85766602 1435.75952148 -904.85766602 1435.75952148 -905.79492188 1433.72973633 C-906.32508911 1432.5949585 -906.32508911 1432.5949585 -906.8659668 1431.43725586 C-907.43214722 1430.20144775 -907.43214722 1430.20144775 -908.00976562 1428.94067383 C-908.81946591 1427.20099947 -909.62936747 1425.46141878 -910.43945312 1423.72192383 C-910.85420898 1422.82602539 -911.26896484 1421.93012695 -911.69628906 1421.00708008 C-913.27504555 1417.61047362 -914.88137879 1414.22740974 -916.49072266 1410.84521484 C-922.55373165 1398.10202757 -928.43823985 1385.30895031 -933.94726562 1372.31567383 C-934.41753174 1371.23721191 -934.88779785 1370.15875 -935.37231445 1369.04760742 C-936.88696909 1365.51322917 -938.23072413 1361.93136473 -939.54101562 1358.31567383 C-939.89021057 1357.35661133 -939.89021057 1357.35661133 -940.24645996 1356.37817383 C-941.22926324 1353.67871887 -942.20744562 1350.97759607 -943.18603516 1348.27661133 C-943.9069131 1346.28904101 -944.63016759 1344.30234626 -945.35351562 1342.31567383 C-945.77955078 1341.14004883 -946.20558594 1339.96442383 -946.64453125 1338.75317383 C-947.5381749 1336.39513361 -948.48955389 1334.05841044 -949.48828125 1331.74291992 C-950.79303335 1328.67797516 -951.88470735 1325.65427754 -952.88476562 1322.47973633 C-953.2225 1321.4149707 -953.56023438 1320.35020508 -953.90820312 1319.25317383 C-954.25109375 1318.16004883 -954.59398437 1317.06692383 -954.94726562 1315.94067383 C-955.63426508 1313.76603647 -956.32175672 1311.59155453 -957.00976562 1309.41723633 C-957.34234375 1308.36181641 -957.67492187 1307.30639648 -958.01757812 1306.21899414 C-958.77605462 1303.85034853 -959.56922957 1301.50085915 -960.38476562 1299.15161133 C-974.90166926 1255.85532542 -985.47996242 1209.3313072 -991.50976562 1164.12817383 C-991.79239635 1161.37172955 -991.79239635 1161.37172955 -992.94726562 1159.31567383 C-993.25707736 1156.89852882 -993.52090323 1154.49011363 -993.75976562 1152.06567383 C-994.79662289 1142.08526872 -996.15175812 1132.1522937 -997.53833008 1122.21508789 C-998.49994831 1115.19133562 -999.25512513 1108.20768873 -999.69897461 1101.13134766 C-999.93469077 1098.45827541 -1000.41103984 1095.94149697 -1000.94726562 1093.31567383 C-1001.07254016 1091.8897074 -1001.16684242 1090.46064707 -1001.22851562 1089.03051758 C-1001.26589844 1088.25256836 -1001.30328125 1087.47461914 -1001.34179688 1086.6730957 C-1001.4122793 1085.0559156 -1001.48259098 1083.43872805 -1001.55273438 1081.8215332 C-1001.60880859 1080.65654297 -1001.60880859 1080.65654297 -1001.66601562 1079.46801758 C-1001.69630859 1078.76668701 -1001.72660156 1078.06535645 -1001.7578125 1077.34277344 C-1001.88898999 1075.32765455 -1001.88898999 1075.32765455 -1002.43960571 1073.47747803 C-1003.43204085 1069.2513211 -1003.34553377 1064.87797245 -1003.50195312 1060.55395508 C-1003.54399872 1059.39285721 -1003.58604431 1058.23175934 -1003.62936401 1057.03547668 C-1004.19798178 1038.99688077 -1004.09712666 1020.94439448 -1004.07763672 1002.89892578 C-1004.07192235 997.56027366 -1004.07524456 992.22167167 -1004.08120918 986.88302135 C-1004.08486403 982.6916518 -1004.08365421 978.50029367 -1004.08108139 974.30892372 C-1004.08042661 972.34264431 -1004.08118809 970.37636377 -1004.08356094 968.41008568 C-1004.10040167 950.55955464 -1003.58031586 932.72855039 -1002.00976562 914.94067383 C-1001.92331787 913.93359375 -1001.83687012 912.92651367 -1001.74780273 911.88891602 C-1001.15405 905.16438365 -1000.3994426 898.48372005 -999.50585938 891.79223633 C-998.89100029 887.05348515 -998.42441329 882.30104651 -997.94140625 877.54736328 C-995.79181641 856.54479008 -992.6220115 835.77445324 -988.49462891 815.0715332 C-987.89562308 812.05566443 -987.30992341 809.03735345 -986.72460938 806.01879883 C-984.70090585 795.65451243 -982.57391617 785.36342654 -979.91210938 775.14379883 C-978.82335564 770.82404716 -977.88207318 766.48317553 -976.94726562 762.12817383 C-975.5361202 755.60075389 -973.84058067 749.27354573 -971.77929688 742.91723633 C-971.07610529 740.71852461 -970.49768449 738.55533458 -969.94726562 736.31567383 C-966.97693165 724.45764657 -963.35792947 712.83832657 -959.62133789 701.20214844 C-958.64251027 698.1523047 -957.67045133 695.10036545 -956.69921875 692.0480957 C-951.22688355 674.90673789 -945.56766185 657.85412353 -938.75976562 641.19067383 C-938.34791016 640.17231445 -937.93605469 639.15395508 -937.51171875 638.10473633 C-936.70702725 636.11532468 -935.90062544 634.12660374 -935.09228516 632.13867188 C-933.98689468 629.41337761 -932.89268071 626.6838951 -931.80273438 623.95239258 C-930.37437738 620.37597213 -928.92742405 616.80855437 -927.44726562 613.25317383 C-927.06570313 612.33407227 -926.68414063 611.4149707 -926.29101562 610.46801758 C-922.71677465 602.08309761 -918.9215565 593.79369566 -915.13476562 585.50317383 C-914.63912109 584.40424805 -914.14347656 583.30532227 -913.6328125 582.1730957 C-910.59808604 575.54512813 -907.26061056 569.2433983 -903.52514648 562.984375 C-901.56933704 559.67647572 -899.83648522 556.3238679 -898.13476562 552.87817383 C-897.80766602 552.21897949 -897.48056641 551.55978516 -897.14355469 550.88061523 C-895.26482019 547.07305837 -893.43760425 543.24356925 -891.63867188 539.39770508 C-886.03066071 527.41917506 -880.0060808 515.76470543 -873.56103516 504.21508789 C-871.89482173 501.22144937 -870.24636096 498.2184938 -868.59960938 495.21411133 C-849.84328202 461.14850784 -828.12375683 428.85982246 -804.34667969 398.10180664 C-801.12124162 393.91331365 -798.05215039 389.68987729 -795.29101562 385.17504883 C-793.4393725 382.61289148 -791.19125735 380.53998142 -788.94726562 378.31567383 C-787.17339907 376.28916567 -785.42450732 374.25571899 -783.69726562 372.19067383 C-783.2198291 371.62372803 -782.74239258 371.05678223 -782.25048828 370.47265625 C-779.23833544 366.88664067 -776.2718123 363.26594806 -773.32226562 359.62817383 C-769.69892067 355.17663575 -765.9276269 350.89184928 -762.06445312 346.64770508 C-760.16675393 344.55743494 -758.29993148 342.44581268 -756.44726562 340.31567383 C-752.3340939 335.6001154 -748.14823846 330.95301813 -743.94726562 326.31567383 C-742.82856079 325.06669312 -742.82856079 325.06669312 -741.68725586 323.79248047 C-731.94813518 313.06186876 -721.65604031 302.87189304 -711.40087891 292.63891602 C-708.71934468 289.96311484 -706.04237767 287.28279618 -703.36668777 284.60115242 C-701.27682104 282.50764992 -699.18455126 280.41656203 -697.09157562 278.32616806 C-696.10381804 277.33906952 -695.11678025 276.35125008 -694.13053131 275.3626442 C-689.11183803 270.33457282 -684.06563448 265.40479024 -678.66078186 260.79107666 C-675.73145916 258.26881809 -672.94602928 255.59277871 -670.13476562 252.94067383 C-665.09160744 248.21694273 -659.92035587 243.74733092 -654.52539062 239.42504883 C-651.92300273 237.29582237 -649.43151061 235.08118026 -646.94726562 232.81567383 C-641.77211746 228.11099368 -636.38523723 223.71131039 -630.94726562 219.31567383 C-629.71606475 218.30484615 -628.48563944 217.29307334 -627.25585938 216.28051758 C-618.69047001 209.24409322 -609.976746 202.45965786 -601.05859375 195.87670898 C-598.87578454 194.26282345 -596.7002841 192.63942613 -594.52539062 191.01489258 C-577.4471378 178.29654247 -560.02924852 166.04247057 -542.03955078 154.64428711 C-539.8611266 153.26097504 -537.6910697 151.86514554 -535.52148438 150.46801758 C-505.52746924 131.237405 -474.15157428 114.07909342 -442.1640625 98.40551758 C-440.59006768 97.63169457 -439.0187148 96.85248741 -437.44921875 96.06958008 C-382.49352072 68.69092908 -323.81662802 48.05309311 -264.36083984 32.92962646 C-262.74229576 32.51790952 -261.12413478 32.10468377 -259.50634766 31.69000244 C-207.35359412 18.32773154 -154.24265641 9.86901137 -100.69726562 4.56567383 C-99.68149445 4.46444214 -98.66572327 4.36321045 -97.61917114 4.25891113 C-90.40014185 3.54758416 -83.17623941 2.91660461 -75.94726562 2.31567383 C-74.87031433 2.22138092 -73.79336304 2.12708801 -72.68377686 2.02993774 C-48.48008948 -0.04172746 -24.27630848 -0.02633885 0 0 Z " fill="#D62829" transform="translate(1003.947265625,-0.315673828125)"/>
<path d="M0 0 C1.31021703 -0.00275974 2.62043407 -0.00551949 3.97035465 -0.00836286 C5.42565994 -0.00637498 6.88096511 -0.00429551 8.33627015 -0.00213462 C9.88760044 -0.00348091 11.4389304 -0.00526459 12.99025974 -0.00744686 C17.27434955 -0.01218992 21.55841818 -0.01067097 25.84250905 -0.00816908 C30.49536992 -0.00654011 35.14822618 -0.01067342 39.80108559 -0.01407826 C47.96296207 -0.01924032 56.12483261 -0.02064807 64.28671056 -0.01962215 C76.42373499 -0.01810027 88.56075282 -0.0222522 100.69777597 -0.02749677 C123.63384149 -0.0371805 146.56990478 -0.0399814 169.50597211 -0.04055383 C187.2155334 -0.04101294 204.92509381 -0.04306899 222.63465482 -0.04625446 C227.72778789 -0.04715197 232.82092096 -0.04804178 237.91405404 -0.04892933 C239.18013642 -0.04915038 240.44621881 -0.04937143 241.75066733 -0.04959918 C277.37591936 -0.05575562 313.00117111 -0.0597054 348.62642366 -0.0592559 C349.9838528 -0.05924012 351.34128194 -0.05922438 352.69871108 -0.05920869 C358.8274859 -0.05913531 364.95626072 -0.05904714 371.08503553 -0.05895481 C373.8180492 -0.05891368 376.55106286 -0.05887353 379.28407653 -0.05883349 C380.65200001 -0.0588131 382.0199235 -0.05879208 383.38784698 -0.05877043 C426.64163554 -0.05809021 469.89541591 -0.06540674 513.14920217 -0.07931072 C524.04634869 -0.0828117 534.94349521 -0.08628115 545.8406418 -0.08957511 C546.51161157 -0.08977799 547.18258135 -0.08998086 547.87388355 -0.09018988 C584.09890005 -0.10107669 620.32391703 -0.10305224 656.54893506 -0.10234749 C661.6436399 -0.10227286 666.73834475 -0.10222415 671.8330496 -0.10219318 C673.0875435 -0.10218152 674.3420374 -0.10216987 675.63454628 -0.10215786 C695.8440823 -0.10212706 716.05361142 -0.10851961 736.26314538 -0.11712544 C756.56647145 -0.12559252 776.86978741 -0.1265993 797.17311426 -0.12001612 C809.24200621 -0.1163141 821.31086746 -0.11817223 833.37975617 -0.12795846 C841.43712727 -0.13394102 849.49447604 -0.13268226 857.55184609 -0.12548796 C862.14557617 -0.12159183 866.73924669 -0.12087274 871.33297267 -0.12894531 C875.51289433 -0.13622653 879.69270686 -0.13428484 883.87262367 -0.12502145 C885.37450311 -0.12330159 886.8763911 -0.12492376 888.37826182 -0.13032265 C910.18344897 -0.20345101 910.18344897 -0.20345101 917.56839162 6.12649983 C926.45364905 16.02721525 926.00649326 35.06692035 927.50589162 47.68899983 C927.69956823 49.29809727 927.69956823 49.29809727 927.89715749 50.93970174 C934.36103634 104.78548678 938.12431175 158.63804784 937.9595049 212.8811385 C937.94240447 218.55603781 937.95261491 224.23051493 937.96982652 229.90539998 C938.04727123 260.08670222 937.00131315 290.04197944 934.56839162 320.12649983 C934.51301732 320.81370232 934.45764302 321.50090482 934.40059072 322.20893162 C933.79478373 329.65248259 933.07507153 337.07864356 932.25589162 344.50149983 C932.09907415 345.9569521 932.09907415 345.9569521 931.93908864 347.44180745 C924.35562963 417.59601457 910.15257064 486.95726575 888.23715383 554.06802815 C887.59083022 556.05743309 886.95417686 558.04961151 886.32180959 560.04349202 C876.02855039 592.4586352 863.54392805 624.13008938 849.56839162 655.12649983 C849.06162893 656.25426839 848.55486623 657.38203694 848.03274709 658.5439803 C835.63200311 686.01548491 822.42253791 713.26797423 807.21194631 739.30130452 C805.4082503 742.40177543 803.6314662 745.51676715 801.85745412 748.63431233 C778.77676214 789.11217136 752.62827405 828.46130112 722.56839162 864.12649983 C721.67897949 865.19022732 720.78966221 866.25403413 719.90042287 867.31790608 C714.98332147 873.18142374 709.99144537 878.95988381 704.83401662 884.61478108 C702.95974952 886.69263237 701.11794661 888.79130242 699.28323537 890.90384358 C695.57457383 895.1500282 691.75020042 899.27673955 687.88089162 903.37649983 C687.18608693 904.11303792 686.49128225 904.849576 685.77542287 905.60843343 C670.33916399 921.91369126 670.33916399 921.91369126 661.84182912 929.13821858 C657.96832271 932.52587282 654.2373719 936.07005393 650.4907549 939.59695882 C643.8348984 945.8285857 643.8348984 945.8285857 641.56839162 947.12649983 C637.00749947 946.44385003 634.07040922 943.54919794 630.63089162 940.68899983 C629.274942 939.58252395 627.91815792 938.47706995 626.56057912 937.37259358 C625.88478811 936.8207137 625.20899709 936.26883382 624.51272756 935.7002303 C621.79619292 933.50148817 619.03225068 931.37439016 616.25589162 929.25149983 C605.0649675 920.69044288 593.95936888 912.01867109 582.8879717 903.30374593 C575.90934729 897.81449246 568.89441134 892.37190264 561.88284475 886.92483968 C558.11023528 883.9935062 554.33938807 881.05990785 550.56839162 878.12649983 C549.06840039 876.95982189 547.56840038 875.79315524 546.06839162 874.62649983 C543.06839162 872.2931665 540.06839162 869.95983317 537.06839162 867.62649983 C536.32556936 867.04875813 535.58274709 866.47101643 534.81741506 865.87576741 C533.32063519 864.71158724 531.82389028 863.54736213 530.32718068 862.38309163 C526.52820104 859.4280081 522.72857697 856.47375969 518.92776662 853.52103108 C511.45012265 847.71060899 503.98321833 841.88762724 496.54397756 836.02811116 C492.73849382 833.03485414 488.91069613 830.07230528 485.06839162 827.12649983 C480.64949527 823.73863483 476.25511402 820.32185499 471.88089162 816.87649983 C464.24088856 810.85908585 456.56279034 804.89114502 448.88284475 798.92483968 C444.36316688 795.4130309 439.84587605 791.89815239 435.32815725 788.38382405 C431.52883417 785.42851944 427.72889825 782.47400928 423.92776662 779.52103108 C416.56861925 773.80277468 409.21787887 768.07468776 401.89554006 762.30936116 C397.13403718 758.5633997 392.35275033 754.84320802 387.56839162 751.12649983 C381.66425306 746.53989555 375.76902636 741.94272568 369.90091115 737.31009358 C366.6600892 734.75542095 363.40094628 732.2272656 360.12307912 729.72024983 C352.15623173 723.61199967 344.43018755 717.43833302 337.13870412 710.53274983 C334.17453859 707.75778635 331.07446641 705.18722187 327.89651662 702.66165608 C326.56839162 701.12649983 326.56839162 701.12649983 326.56839162 697.12649983 C327.80594045 695.67850178 327.80594045 695.67850178 329.52542287 694.36478108 C330.14352834 693.88589436 330.76163381 693.40700764 331.39846975 692.91360921 C332.05266896 692.42698811 332.70686818 691.94036702 333.38089162 691.43899983 C334.02348928 690.94077718 334.66608693 690.44255452 335.32815725 689.92923421 C338.11139235 687.80359247 340.21181967 686.24535715 343.56839162 685.12649983 C343.56839162 684.46649983 343.56839162 683.80649983 343.56839162 683.12649983 C345.00979787 681.85696858 345.00979787 681.85696858 347.13089162 680.31399983 C367.80693782 664.63762159 388.15881367 645.9527174 404.88089162 626.09524983 C407.95213239 622.5121356 411.21280172 619.09267583 414.43167287 615.64212483 C416.56960468 613.33645096 416.56960468 613.33645096 417.54886037 611.11087483 C419.02322452 608.24123121 421.27126465 606.38078225 423.56839162 604.12649983 C445.96408214 578.49869467 463.54486523 548.51506695 478.56839162 518.12649983 C478.92280324 517.41783772 479.27721486 516.70917561 479.64236623 515.97903889 C494.38078107 486.38360422 508.16865427 451.72707474 514.56839162 419.12649983 C514.91901662 418.07462483 515.26964162 417.02274983 515.63089162 415.93899983 C517.04271448 410.19758687 517.58792272 404.70215735 515.38089162 399.12649983 C511.88245367 395.26615451 507.55413691 394.77579288 502.56839162 394.12649983 C498.81481927 393.98359406 495.06426852 393.9971416 491.30838186 394.00906819 C490.17240371 394.00892531 489.03642556 394.00878243 487.86602384 394.00863522 C484.05715198 394.0099975 480.2483447 394.0191975 476.43948537 394.02884358 C475.08510475 394.03082106 473.73072379 394.0325724 472.37634259 394.03410596 C450.30558205 394.05940929 428.23605123 394.20505721 406.16604787 394.38040608 C320.17430263 395.05988311 234.18958928 395.1967105 131.98786843 394.85977292 C121.97242279 394.82584758 111.95697172 394.79596341 101.94150676 394.76837069 C87.92131821 394.72968247 73.90118239 394.68365323 59.88106102 394.62528294 C53.02556679 394.59683979 46.17009331 394.57111671 39.31456167 394.55356663 C32.97282401 394.53688048 26.63119458 394.51081479 20.28952378 394.47737461 C17.98440921 394.46676897 15.67927668 394.45945381 13.37414068 394.4557541 C10.23052521 394.45016285 7.08719812 394.43242045 3.94365102 394.41170186 C2.59804066 394.41358051 2.59804066 394.41358051 1.22524625 394.41549712 C-6.10932671 394.34597652 -14.07614732 394.11238495 -20.49410838 390.31399983 C-27.23535148 382.70291891 -25.58714304 370.48395889 -25.60328501 360.97131795 C-25.60928978 359.53070931 -25.61571575 358.09010239 -25.62252474 356.64949733 C-25.63992443 352.70405707 -25.65125155 348.75861948 -25.66153508 344.81315511 C-25.67368503 340.55257956 -25.69142901 336.29202665 -25.70840281 332.03146809 C-25.74067821 323.68854966 -25.76752712 315.34562231 -25.79220559 307.00267826 C-25.81228938 300.2180869 -25.83388641 293.43350205 -25.85654467 286.64891881 C-25.92064106 267.39898025 -25.98054615 248.14903501 -26.03522678 228.89906739 C-26.03817382 227.86182029 -26.04112086 226.82457319 -26.04415721 225.75589436 C-26.04710694 224.71737555 -26.05005668 223.67885674 -26.0530958 222.60886766 C-26.10113604 205.78643242 -26.1592224 188.96404877 -26.22185489 172.14166211 C-26.28609911 154.85443204 -26.34270009 137.56719134 -26.39142275 120.27991039 C-26.41891923 110.58017345 -26.44955281 100.88047011 -26.48843783 91.18077153 C-26.52149534 82.92052141 -26.54743786 74.66028631 -26.56429412 66.39998661 C-26.5730877 62.18965296 -26.58510036 57.97939663 -26.60610217 53.76910466 C-26.6252872 49.90622584 -26.63485499 46.04344083 -26.63712565 42.18051614 C-26.64071439 40.13929805 -26.65424275 38.09810467 -26.66825998 36.05693156 C-26.64787559 13.35650831 -26.64787559 13.35650831 -21.74410838 6.93899983 C-15.7276364 1.11329404 -8.08707833 0.00208612 0 0 Z " fill="#5D7FBD" transform="translate(1022.4316083788872,809.8735001683235)"/>
<path d="M0 0 C6.38372659 3.94441643 12.18386207 8.48324471 18.00292969 13.19677734 C22.53512893 16.85671251 27.13717263 20.40011019 31.8125 23.875 C39.95523154 29.93154412 47.95565392 36.16267761 55.95458984 42.40722656 C58.79327584 44.61772877 61.64559353 46.80982648 64.5 49 C69.60080112 52.91531342 74.67797742 56.85999488 79.75 60.8125 C87.81750692 67.09700502 95.93317344 73.31645988 104.06298828 79.52001953 C109.05284325 83.33253539 114.02470368 87.1685218 119 91 C121.16644651 92.66695292 123.33322497 94.33347413 125.5 96 C126.58333938 96.83332547 127.66667272 97.6666588 128.75 98.5 C129.28625 98.9125 129.8225 99.325 130.375 99.75 C132 101 133.625 102.25 135.25 103.5 C135.78584717 103.91217773 136.32169434 104.32435547 136.8737793 104.74902344 C137.96123001 105.5855491 139.04863207 106.42213803 140.13598633 107.25878906 C142.78093787 109.29379288 145.42681112 111.32756533 148.07421875 113.359375 C154.31787502 118.15375095 160.54038067 122.97411088 166.75 127.8125 C174.8175508 134.09694941 182.93317278 140.31645938 191.06298828 146.52001953 C196.05284325 150.33253539 201.02470368 154.1685218 206 158 C208.16644651 159.66695292 210.33322497 161.33347413 212.5 163 C213.58333938 163.83332547 214.66667272 164.6666588 215.75 165.5 C216.28625 165.9125 216.8225 166.325 217.375 166.75 C219 168 220.625 169.25 222.25 170.5 C222.78584717 170.91217773 223.32169434 171.32435547 223.8737793 171.74902344 C224.96123001 172.5855491 226.04863207 173.42213803 227.13598633 174.25878906 C229.78093787 176.29379288 232.42681112 178.32756533 235.07421875 180.359375 C239.81351561 183.99858413 244.54770044 187.64335922 249.2578125 191.3203125 C256.46014928 196.94233375 263.67391917 202.53977179 271 208 C276.7816058 212.30910985 282.5009902 216.69113597 288.1875 221.125 C288.94699951 221.71692139 289.70649902 222.30884277 290.48901367 222.91870117 C293.27701874 225.09285574 296.06440622 227.26778543 298.84863281 229.44677734 C305.78264505 234.86852202 312.83253362 240.04892299 320.09765625 245.015625 C323.43397366 247.29671416 326.72173283 249.63659808 330 252 C328.48846044 257.64070834 326.93608733 263.26507426 325.2734375 268.86328125 C308.22562287 326.49534132 298.78238413 385.4130906 298.75 445.5625 C298.74932526 446.69906036 298.74865051 447.83562073 298.74795532 449.00662231 C298.77973779 483.01059663 301.80804622 516.41385477 307 550 C307.18788086 551.22509277 307.37576172 552.45018555 307.56933594 553.71240234 C311.69500078 579.97031025 317.87652622 606.15569787 325.32397461 631.67138672 C327.6859866 639.88287688 327.6859866 639.88287688 327 643 C324.7890625 645.18359375 324.7890625 645.18359375 321.625 647.4375 C320.42870609 648.30985365 319.23345178 649.18363416 318.0390625 650.05859375 C317.38969727 650.52765137 316.74033203 650.99670898 316.07128906 651.47998047 C312.3160403 654.23577712 308.6662677 657.12756031 305 660 C299.84574095 664.01632668 294.68314386 668.02102087 289.5 672 C282.08386871 677.69469554 274.70801416 683.44087592 267.33056641 689.18554688 C263.55482734 692.12513338 259.77734465 695.06247715 256 698 C254.49999123 699.16665539 252.99999124 700.33332207 251.5 701.5 C248.5 703.83333333 245.5 706.16666667 242.5 708.5 C241.75709717 709.07782227 241.01419434 709.65564453 240.2487793 710.25097656 C238.75288338 711.41443312 237.25695255 712.57784478 235.76098633 713.74121094 C231.94790224 716.70661998 228.13547936 719.67287262 224.32421875 722.640625 C216.69540508 728.57983564 209.05493357 734.50235967 201.38671875 740.390625 C195.01278359 745.29394626 188.67553266 750.2448486 182.33056641 755.18554688 C178.55482734 758.12513338 174.77734465 761.06247715 171 764 C169.49999123 765.16665539 167.99999124 766.33332207 166.5 767.5 C163.5 769.83333333 160.5 772.16666667 157.5 774.5 C156.75709717 775.07782227 156.01419434 775.65564453 155.2487793 776.25097656 C153.75288338 777.41443312 152.25695255 778.57784478 150.76098633 779.74121094 C146.94790224 782.70661998 143.13547936 785.67287262 139.32421875 788.640625 C131.69540508 794.57983564 124.05493357 800.50235967 116.38671875 806.390625 C110.01278359 811.29394626 103.67553266 816.2448486 97.33056641 821.18554688 C92.80921801 824.70562453 88.28550476 828.22266224 83.76220703 831.74023438 C79.94873409 834.70599212 76.13589046 837.67255251 72.32421875 840.640625 C64.69540508 846.57983564 57.05493357 852.50235967 49.38671875 858.390625 C43.02602099 863.28376303 36.70190104 868.22434103 30.37011719 873.15478516 C26.39374458 876.25052312 22.41553085 879.34389338 18.4375 882.4375 C17.01952262 883.54035349 15.60155359 884.64321772 14.18359375 885.74609375 C13.50538574 886.26929199 12.82717773 886.79249023 12.12841797 887.33154297 C10.59510187 888.53350239 9.080592 889.75959157 7.57861328 891.00048828 C6.78052246 891.65130371 5.98243164 892.30211914 5.16015625 892.97265625 C4.43578369 893.574729 3.71141113 894.17680176 2.96508789 894.79711914 C2.31660889 895.19406982 1.66812988 895.59102051 1 896 C-2 895 -2 895 -3.6875 892.0625 C-5 889 -5 889 -5 887 C-5.66 886.67 -6.32 886.34 -7 886 C-7.91040039 884.44384766 -7.91040039 884.44384766 -8.84765625 882.4140625 C-9.20110107 881.65754395 -9.5545459 880.90102539 -9.91870117 880.12158203 C-10.48488159 878.88577393 -10.48488159 878.88577393 -11.0625 877.625 C-11.87220029 875.88532564 -12.68210185 874.14574495 -13.4921875 872.40625 C-14.11432129 871.06240234 -14.11432129 871.06240234 -14.74902344 869.69140625 C-16.32777992 866.2947998 -17.93411317 862.91173592 -19.54345703 859.52954102 C-25.60646602 846.78635374 -31.49097422 833.99327648 -37 821 C-37.47026611 819.92153809 -37.94053223 818.84307617 -38.42504883 817.73193359 C-39.93970347 814.19755534 -41.28345851 810.6156909 -42.59375 807 C-42.94294495 806.0409375 -42.94294495 806.0409375 -43.29919434 805.0625 C-44.28199761 802.36304504 -45.26017999 799.66192224 -46.23876953 796.9609375 C-46.95964747 794.97336718 -47.68290197 792.98667243 -48.40625 791 C-48.83228516 789.824375 -49.25832031 788.64875 -49.69726562 787.4375 C-50.59090928 785.07945978 -51.54228827 782.74273661 -52.54101562 780.42724609 C-53.84576772 777.36230133 -54.93744172 774.33860371 -55.9375 771.1640625 C-56.27523437 770.09929688 -56.61296875 769.03453125 -56.9609375 767.9375 C-57.30382813 766.844375 -57.64671875 765.75125 -58 764.625 C-58.68699945 762.45036264 -59.3744911 760.2758807 -60.0625 758.1015625 C-60.39507812 757.04614258 -60.72765625 755.99072266 -61.0703125 754.90332031 C-61.828789 752.5346747 -62.62196394 750.18518532 -63.4375 747.8359375 C-77.95440364 704.53965159 -88.5326968 658.01563338 -94.5625 612.8125 C-94.84513073 610.05605572 -94.84513073 610.05605572 -96 608 C-96.30981173 605.58285499 -96.57363761 603.1744398 -96.8125 600.75 C-97.84935727 590.76959489 -99.20449249 580.83661987 -100.59106445 570.89941406 C-101.55268269 563.87566179 -102.3078595 556.89201491 -102.75170898 549.81567383 C-102.98742514 547.14260158 -103.46377421 544.62582314 -104 542 C-104.12527453 540.57403357 -104.21957679 539.14497325 -104.28125 537.71484375 C-104.31863281 536.93689453 -104.35601562 536.15894531 -104.39453125 535.35742188 C-104.46501368 533.74024177 -104.53532536 532.12305422 -104.60546875 530.50585938 C-104.64285156 529.72919922 -104.68023437 528.95253906 -104.71875 528.15234375 C-104.74904297 527.45101318 -104.77933594 526.74968262 -104.81054688 526.02709961 C-104.94172436 524.01198072 -104.94172436 524.01198072 -105.49234009 522.1618042 C-106.48477523 517.93564727 -106.39826814 513.56229862 -106.5546875 509.23828125 C-106.61775589 507.49663445 -106.61775589 507.49663445 -106.68209839 505.71980286 C-107.25071615 487.68120694 -107.14986104 469.62872065 -107.13037109 451.58325195 C-107.12465672 446.24459984 -107.12797894 440.90599785 -107.13394356 435.56734753 C-107.13759841 431.37597797 -107.13638858 427.18461984 -107.13381577 422.99324989 C-107.13316099 421.02697048 -107.13392247 419.06068994 -107.13629532 417.09441185 C-107.15313605 399.24388081 -106.63305023 381.41287656 -105.0625 363.625 C-104.97605225 362.61791992 -104.88960449 361.61083984 -104.80053711 360.57324219 C-104.20678437 353.84870982 -103.45217698 347.16804622 -102.55859375 340.4765625 C-101.94373467 335.73781132 -101.47714766 330.98537268 -100.99414062 326.23168945 C-98.84455079 305.22911625 -95.67474588 284.45877941 -91.54736328 263.75585938 C-90.94835745 260.7399906 -90.36265778 257.72167962 -89.77734375 254.703125 C-87.75364022 244.3388386 -85.62665055 234.04775271 -82.96484375 223.828125 C-81.87609001 219.50837334 -80.93480755 215.1675017 -80 210.8125 C-78.58885458 204.28508006 -76.89331505 197.9578719 -74.83203125 191.6015625 C-74.12883966 189.40285078 -73.55041887 187.23966075 -73 185 C-70.02966602 173.14197275 -66.41066384 161.52265275 -62.67407227 149.88647461 C-61.69524465 146.83663087 -60.7231857 143.78469162 -59.75195312 140.73242188 C-54.27961793 123.59106406 -48.62039623 106.5384497 -41.8125 89.875 C-41.40064453 88.85664062 -40.98878906 87.83828125 -40.56445312 86.7890625 C-39.75976162 84.79965086 -38.95335981 82.81092991 -38.14501953 80.82299805 C-37.03962905 78.09770378 -35.94541509 75.36822128 -34.85546875 72.63671875 C-33.42711176 69.0602983 -31.98015843 65.49288054 -30.5 61.9375 C-30.1184375 61.01839844 -29.736875 60.09929688 -29.34375 59.15234375 C-25.76950902 50.76742378 -21.97429088 42.47802183 -18.1875 34.1875 C-17.69185547 33.08857422 -17.19621094 31.98964844 -16.68554688 30.85742188 C-13.65500208 24.23858723 -10.34374412 17.91859537 -6.60058594 11.67407227 C-4.30339697 7.83619692 -2.14921961 3.92207818 0 0 Z " fill="#F3C200" transform="translate(107,551)"/>
</svg>
