<svg width="24" height="24" viewBox="0 0 24 24" fill="none" xmlns="http://www.w3.org/2000/svg">
<path d="M11.9992 22.4985C18.9998 22.4985 22.4985 17.7975 22.4985 11.9985C22.4985 6.201 18.9998 1.5 11.9985 1.5C4.99875 1.5 1.5 6.201 1.5 11.9992C1.5 17.7975 4.998 22.4985 11.9992 22.4985Z" fill="#FFB02E"/>
<path d="M8.25 15.75C8.25 16.5788 7.24275 17.25 6 17.25C4.75725 17.25 3.75 16.5788 3.75 15.75C3.75 14.9212 4.75725 14.25 6 14.25C7.24275 14.25 8.25 14.9212 8.25 15.75ZM20.25 15.75C20.25 16.5788 19.2428 17.25 18 17.25C16.7572 17.25 15.75 16.5788 15.75 15.75C15.75 14.9212 16.7572 14.25 18 14.25C19.2428 14.25 20.25 14.9212 20.25 15.75Z" fill="#FF6723"/>
<path d="M7.875 13.5C8.77011 13.5 9.62855 13.1444 10.2615 12.5115C10.8944 11.8786 11.25 11.0201 11.25 10.125C11.25 9.22989 10.8944 8.37145 10.2615 7.73851C9.62855 7.10558 8.77011 6.75 7.875 6.75C6.97989 6.75 6.12145 7.10558 5.48851 7.73851C4.85558 8.37145 4.5 9.22989 4.5 10.125C4.5 11.0201 4.85558 11.8786 5.48851 12.5115C6.12145 13.1444 6.97989 13.5 7.875 13.5ZM16.125 13.5C17.0201 13.5 17.8785 13.1444 18.5115 12.5115C19.1444 11.8786 19.5 11.0201 19.5 10.125C19.5 9.22989 19.1444 8.37145 18.5115 7.73851C17.8785 7.10558 17.0201 6.75 16.125 6.75C15.2299 6.75 14.3715 7.10558 13.7385 7.73851C13.1056 8.37145 12.75 9.22989 12.75 10.125C12.75 11.0201 13.1056 11.8786 13.7385 12.5115C14.3715 13.1444 15.2299 13.5 16.125 13.5Z" fill="white"/>
<path d="M9.00011 12C9.39793 12 9.77946 11.842 10.0608 11.5607C10.3421 11.2794 10.5001 10.8978 10.5001 10.5C10.5001 10.1022 10.3421 9.72064 10.0608 9.43934C9.77946 9.15804 9.39793 9 9.00011 9C8.60228 9 8.22075 9.15804 7.93945 9.43934C7.65814 9.72064 7.50011 10.1022 7.50011 10.5C7.50011 10.8978 7.65814 11.2794 7.93945 11.5607C8.22075 11.842 8.60228 12 9.00011 12ZM15.0001 12C15.3979 12 15.7795 11.842 16.0608 11.5607C16.3421 11.2794 16.5001 10.8978 16.5001 10.5C16.5001 10.1022 16.3421 9.72064 16.0608 9.43934C15.7795 9.15804 15.3979 9 15.0001 9C14.6023 9 14.2208 9.15804 13.9394 9.43934C13.6581 9.72064 13.5001 10.1022 13.5001 10.5C13.5001 10.8978 13.6581 11.2794 13.9394 11.5607C14.2208 11.842 14.6023 12 15.0001 12ZM6.05261 5.991C5.60711 6.4125 5.33861 6.921 5.23061 7.2435C5.21648 7.29193 5.19273 7.337 5.16078 7.37604C5.12883 7.41507 5.08933 7.44726 5.04465 7.47067C4.99996 7.49408 4.95102 7.50823 4.90074 7.51229C4.85046 7.51634 4.79988 7.51021 4.75202 7.49426C4.70416 7.4783 4.66002 7.45286 4.62223 7.41945C4.58444 7.38604 4.55377 7.34535 4.53207 7.29981C4.51037 7.25427 4.49809 7.20482 4.49594 7.15443C4.4938 7.10403 4.50185 7.05372 4.51961 7.0065C4.66211 6.579 4.99211 5.9625 5.53586 5.4465C6.08486 4.92525 6.86111 4.5 7.87511 4.5C7.97456 4.5 8.06994 4.53951 8.14027 4.60984C8.2106 4.68016 8.25011 4.77554 8.25011 4.875C8.25011 4.97446 8.2106 5.06984 8.14027 5.14016C8.06994 5.21049 7.97456 5.25 7.87511 5.25C7.08911 5.25 6.49061 5.57475 6.05261 5.991ZM17.9476 5.991C18.3924 6.4125 18.6616 6.921 18.7696 7.2435C18.8037 7.33428 18.8717 7.40831 18.9593 7.45003C19.0469 7.49175 19.1472 7.49793 19.2392 7.46726C19.3312 7.43658 19.4078 7.37145 19.4528 7.28554C19.4978 7.19963 19.5078 7.09961 19.4806 7.0065C19.3381 6.579 19.0074 5.9625 18.4644 5.4465C17.9154 4.92525 17.1391 4.5 16.1251 4.5C16.0257 4.5 15.9303 4.53951 15.8599 4.60984C15.7896 4.68016 15.7501 4.77554 15.7501 4.875C15.7501 4.97446 15.7896 5.06984 15.8599 5.14016C15.9303 5.21049 16.0257 5.25 16.1251 5.25C16.9119 5.25 17.5104 5.57475 17.9491 5.991M10.5001 16.5C10.3012 16.5 10.1104 16.579 9.96978 16.7197C9.82912 16.8603 9.75011 17.0511 9.75011 17.25C9.75011 17.4489 9.82912 17.6397 9.96978 17.7803C10.1104 17.921 10.3012 18 10.5001 18H13.5001C13.699 18 13.8898 17.921 14.0304 17.7803C14.1711 17.6397 14.2501 17.4489 14.2501 17.25C14.2501 17.0511 14.1711 16.8603 14.0304 16.7197C13.8898 16.579 13.699 16.5 13.5001 16.5H10.5001Z" fill="#402A32"/>
</svg>
