<svg width="44" height="44" viewBox="0 0 44 44" fill="none" xmlns="http://www.w3.org/2000/svg">
<path d="M30.4563 28.028H15.3175L15.29 5.98675C15.29 3.78675 16.6925 2.60425 18.2738 2.60425C24.1175 2.60425 30.4563 10.923 30.4563 15.5842V28.028Z" fill="#F70A8D"/>
<path d="M29.5666 17.8132C31.5769 15.9707 30.2376 11.238 26.576 7.23945C22.913 3.24095 18.3136 1.49195 16.3048 3.33445C14.2931 5.17695 15.6324 9.9097 19.2954 13.9082C22.9584 17.9067 27.5564 19.6557 29.5666 17.8132Z" fill="#FF6DC6"/>
<path d="M12.375 33.22V28.985C12.375 28.1737 13.035 27.5 13.86 27.5H31.515C32.3263 27.5 33 28.16 33 28.985V33.22H12.375Z" fill="#FFB02E"/>
<path d="M9.625 41.25V35.035C9.625 33.9212 10.5462 33 11.66 33H33.715C34.8288 33 35.75 33.9212 35.75 35.035V41.25H9.625Z" fill="#321B41"/>
</svg>
