<svg width="44" height="44" viewBox="0 0 44 44" fill="none" xmlns="http://www.w3.org/2000/svg">
<path d="M19.25 8.9375V5.5H24.75V8.9375C24.7542 9.625 25.443 9.8175 25.443 9.8175L22 11.6875L18.5557 9.82025C18.5557 9.82025 19.2514 9.625 19.25 8.9375Z" fill="#F8312F"/>
<path d="M9.625 20.625C9.625 17.7076 10.7839 14.9097 12.8468 12.8468C14.9097 10.7839 17.7076 9.625 20.625 9.625H23.375C26.2924 9.625 29.0903 10.7839 31.1532 12.8468C33.2161 14.9097 34.375 17.7076 34.375 20.625V35.75C34.375 37.2087 33.7955 38.6076 32.7641 39.6391C31.7326 40.6705 30.3337 41.25 28.875 41.25H15.125C13.6663 41.25 12.2674 40.6705 11.2359 39.6391C10.2045 38.6076 9.625 37.2087 9.625 35.75V20.625Z" fill="#FBB8AB"/>
<path d="M23.375 19.2501C23.375 19.2501 22 16.5001 20.625 19.2501C20.625 19.2501 16.5 25.4376 16.5 29.5626C16.5 30.9376 17.1875 34.3751 22 34.3751C26.8125 34.3751 27.5 30.9376 27.5 29.5626C27.5 25.4376 23.375 19.2501 23.375 19.2501Z" fill="#F3EEF8"/>
<path d="M19.25 6.875C16.5 5.5 17.875 2.75 20.625 2.75C22 2.75 28.875 4.125 28.875 4.125C30.9375 4.8125 30.25 6.875 28.875 6.875H19.25Z" fill="#FF8687"/>
</svg>
