<svg width="63" height="56" viewBox="0 0 63 56" fill="none" xmlns="http://www.w3.org/2000/svg">
<path d="M6.83317 6.33335H16.0832L22.2498 0.166687H40.7498L46.9165 6.33335H56.1665C57.802 6.33335 59.3705 6.98305 60.527 8.13953C61.6835 9.296 62.3332 10.8645 62.3332 12.5V49.5C62.3332 51.1355 61.6835 52.704 60.527 53.8605C59.3705 55.017 57.802 55.6667 56.1665 55.6667H6.83317C5.19767 55.6667 3.62915 55.017 2.47268 53.8605C1.3162 52.704 0.666504 51.1355 0.666504 49.5V12.5C0.666504 10.8645 1.3162 9.296 2.47268 8.13953C3.62915 6.98305 5.19767 6.33335 6.83317 6.33335ZM31.4998 15.5834C27.4111 15.5834 23.4898 17.2076 20.5986 20.0988C17.7074 22.99 16.0832 26.9113 16.0832 31C16.0832 35.0888 17.7074 39.0101 20.5986 41.9013C23.4898 44.7924 27.4111 46.4167 31.4998 46.4167C35.5886 46.4167 39.5099 44.7924 42.4011 41.9013C45.2923 39.0101 46.9165 35.0888 46.9165 31C46.9165 26.9113 45.2923 22.99 42.4011 20.0988C39.5099 17.2076 35.5886 15.5834 31.4998 15.5834ZM31.4998 21.75C33.9531 21.75 36.3059 22.7246 38.0406 24.4593C39.7753 26.194 40.7498 28.5468 40.7498 31C40.7498 33.4533 39.7753 35.806 38.0406 37.5408C36.3059 39.2755 33.9531 40.25 31.4998 40.25C29.0466 40.25 26.6938 39.2755 24.9591 37.5408C23.2244 35.806 22.2498 33.4533 22.2498 31C22.2498 28.5468 23.2244 26.194 24.9591 24.4593C26.6938 22.7246 29.0466 21.75 31.4998 21.75Z" fill="#FFF5F9"/>
</svg>
