<svg width="24" height="24" viewBox="0 0 24 24" fill="none" xmlns="http://www.w3.org/2000/svg">
<path d="M15.7604 3.1199C13.6289 3.49715 11.9999 6.01265 11.9999 6.01265C11.9999 6.01265 10.3709 3.49715 8.23942 3.1199C2.98567 2.19365 0.815921 6.8189 1.68742 10.2614C2.92492 15.1184 8.68492 19.9687 11.0174 21.7679C11.2983 21.9872 11.6443 22.1063 12.0007 22.1063C12.357 22.1063 12.7031 21.9872 12.9839 21.7679C15.3149 19.9694 21.0697 15.1237 22.3139 10.2614C23.1839 6.8189 21.0142 2.19365 15.7604 3.1199Z" fill="#FFB2FF"/>
<path d="M14.9548 5.34066C13.2823 5.62566 12.0013 7.53591 12.0013 7.53591C12.0013 7.53591 10.7196 5.61891 9.04633 5.34066C4.91683 4.63866 3.20608 8.15091 3.89983 10.7707C4.84483 14.3557 9.13033 18.0352 11.0571 19.5412C11.6166 19.9792 12.3846 19.9792 12.9441 19.5412C14.8716 18.0329 19.1571 14.3512 20.1021 10.7707C20.7883 8.15091 19.0851 4.63866 14.9548 5.34066Z" fill="#FF6DC6"/>
<path d="M13.8711 8.31302C12.8046 8.50502 11.9953 9.81902 11.9953 9.81902C11.9953 9.81902 11.1786 8.51252 10.1188 8.31302C7.49307 7.82927 6.40407 10.233 6.84507 12.0233C7.39857 14.2845 9.76032 16.3433 11.0878 17.3513C11.3501 17.5529 11.6717 17.6621 12.0026 17.662C12.3334 17.6619 12.6549 17.5524 12.9171 17.3505C14.2431 16.3433 16.6018 14.283 17.1598 12.0233C17.5866 10.2338 16.4976 7.82927 13.8711 8.31302Z" fill="#F92F60"/>
</svg>
