<svg width="12" height="12" viewBox="0 0 12 12" fill="none" xmlns="http://www.w3.org/2000/svg">
<g clip-path="url(#clip0_2159_2359)">
<path d="M1.875 10.875L1.125 10.125L7.125 4.125L7.875 4.875L1.875 10.875Z" fill="#433B6B"/>
<path d="M6.74993 4.49995L7.49993 5.24995L8.12768 4.62482C8.29081 4.45795 8.29081 4.15982 8.12768 3.9967L8.00393 3.87257C7.83743 3.7087 7.49993 3.74995 7.31243 3.93745L6.74993 4.49995ZM0.876681 10.9694L1.03043 11.1232C1.19543 11.2927 1.46918 11.2927 1.63418 11.1194L2.24993 10.5026L1.49993 9.74995L0.876681 10.3601C0.836533 10.4 0.804672 10.4475 0.782932 10.4998C0.761192 10.5521 0.75 10.6081 0.75 10.6648C0.75 10.7214 0.761192 10.7775 0.782932 10.8297C0.804672 10.882 0.836533 10.9295 0.876681 10.9694Z" fill="#F4F4F4"/>
<path d="M10.4512 1.65862C10.5004 1.76512 10.5832 1.84913 10.6927 1.89675L11.1484 2.09438C11.1786 2.10762 11.2044 2.12939 11.2224 2.15703C11.2405 2.18467 11.2501 2.21698 11.2501 2.25C11.2501 2.28302 11.2405 2.31533 11.2224 2.34297C11.2044 2.37061 11.1786 2.39238 11.1484 2.40562L10.6965 2.60325C10.5886 2.64883 10.5023 2.73406 10.4554 2.84138L10.0976 3.654C10.0339 3.78188 9.8415 3.78188 9.77737 3.654L9.41962 2.84138C9.37146 2.73492 9.28555 2.65008 9.1785 2.60325L8.72662 2.40562C8.69637 2.39238 8.67063 2.37061 8.65256 2.34297C8.63448 2.31533 8.62486 2.28302 8.62486 2.25C8.62486 2.21698 8.63448 2.18467 8.65256 2.15703C8.67063 2.12939 8.69637 2.10762 8.72662 2.09438L9.1785 1.89675C9.28639 1.85117 9.37269 1.76594 9.41962 1.65862L9.77737 0.846C9.84112 0.718125 10.0335 0.718125 10.0976 0.846L10.4512 1.65862ZM6.16537 2.10113C6.08971 2.0696 6.02849 2.01105 5.99362 1.93687L5.74012 1.37812C5.69325 1.29075 5.55637 1.29075 5.50987 1.37812L5.25637 1.93687C5.22244 2.01172 5.16091 2.07056 5.08462 2.10113L4.76062 2.23612C4.7391 2.24471 4.72064 2.25956 4.70764 2.27875C4.69464 2.29793 4.68769 2.32057 4.68769 2.34375C4.68769 2.36693 4.69464 2.38957 4.70764 2.40875C4.72064 2.42794 4.7391 2.44279 4.76062 2.45138L5.08462 2.58637C5.15989 2.61849 5.22093 2.67686 5.25637 2.75063L5.50987 3.30937C5.55675 3.39675 5.69362 3.39675 5.74012 3.30937L5.99362 2.75063C6.02756 2.67578 6.08909 2.61694 6.16537 2.58637L6.48937 2.45138C6.5109 2.44279 6.52936 2.42794 6.54236 2.40875C6.55536 2.38957 6.56231 2.36693 6.56231 2.34375C6.56231 2.32057 6.55536 2.29793 6.54236 2.27875C6.52936 2.25956 6.5109 2.24471 6.48937 2.23612L6.16537 2.10113ZM9.73162 6.11175C9.65432 6.07449 9.59307 6.01057 9.55912 5.93175L9.30187 5.3235C9.25387 5.22563 9.11737 5.22563 9.07312 5.3235L8.81625 5.93213C8.78223 6.0108 8.72099 6.07458 8.64375 6.11175L8.32237 6.25875C8.226 6.3075 8.226 6.44625 8.32237 6.49125L8.64337 6.63825C8.72068 6.67551 8.78193 6.73943 8.81588 6.81825L9.07312 7.4265C9.12112 7.52438 9.25762 7.52438 9.30187 7.4265L9.55875 6.81825C9.59269 6.73943 9.65395 6.67551 9.73125 6.63825L10.0526 6.49125C10.149 6.4425 10.149 6.30375 10.0526 6.25875L9.73162 6.11175ZM4.5 5.25C4.59946 5.25 4.69484 5.21049 4.76516 5.14016C4.83549 5.06984 4.875 4.97446 4.875 4.875C4.875 4.77554 4.83549 4.68016 4.76516 4.60984C4.69484 4.53951 4.59946 4.5 4.5 4.5C4.40054 4.5 4.30516 4.53951 4.23484 4.60984C4.16451 4.68016 4.125 4.77554 4.125 4.875C4.125 4.97446 4.16451 5.06984 4.23484 5.14016C4.30516 5.21049 4.40054 5.25 4.5 5.25ZM11.25 4.875C11.25 4.97446 11.2105 5.06984 11.1402 5.14016C11.0698 5.21049 10.9745 5.25 10.875 5.25C10.7755 5.25 10.6802 5.21049 10.6098 5.14016C10.5395 5.06984 10.5 4.97446 10.5 4.875C10.5 4.77554 10.5395 4.68016 10.6098 4.60984C10.6802 4.53951 10.7755 4.5 10.875 4.5C10.9745 4.5 11.0698 4.53951 11.1402 4.60984C11.2105 4.68016 11.25 4.77554 11.25 4.875ZM7.125 1.5C7.22446 1.5 7.31984 1.46049 7.39017 1.39017C7.46049 1.31984 7.5 1.22446 7.5 1.125C7.5 1.02554 7.46049 0.930161 7.39017 0.859835C7.31984 0.789509 7.22446 0.75 7.125 0.75C7.02554 0.75 6.93016 0.789509 6.85983 0.859835C6.78951 0.930161 6.75 1.02554 6.75 1.125C6.75 1.22446 6.78951 1.31984 6.85983 1.39017C6.93016 1.46049 7.02554 1.5 7.125 1.5ZM7.5 7.875C7.5 7.97446 7.46049 8.06984 7.39017 8.14017C7.31984 8.21049 7.22446 8.25 7.125 8.25C7.02554 8.25 6.93016 8.21049 6.85983 8.14017C6.78951 8.06984 6.75 7.97446 6.75 7.875C6.75 7.77554 6.78951 7.68016 6.85983 7.60983C6.93016 7.53951 7.02554 7.5 7.125 7.5C7.22446 7.5 7.31984 7.53951 7.39017 7.60983C7.46049 7.68016 7.5 7.77554 7.5 7.875Z" fill="#F9C23C"/>
</g>
<defs>
<clipPath id="clip0_2159_2359">
<rect width="12" height="12" fill="white"/>
</clipPath>
</defs>
</svg>
