<svg width="28" height="28" viewBox="0 0 28 28" fill="none" xmlns="http://www.w3.org/2000/svg">
<path d="M24.8889 5.44458H3.11111C2.28599 5.44458 1.49467 5.77236 0.911223 6.3558C0.327777 6.93925 0 7.73057 0 8.55569L0 20.2224C0 21.0475 0.327777 21.8388 0.911223 22.4222C1.49467 23.0057 2.28599 23.3335 3.11111 23.3335H11.9902C12.3947 23.797 13.139 24.1112 14 24.1112C14.861 24.1112 15.6061 23.797 16.0098 23.3335H24.8889C25.714 23.3335 26.5053 23.0057 27.0888 22.4222C27.6722 21.8388 28 21.0475 28 20.2224V8.55569C28 7.73057 27.6722 6.93925 27.0888 6.3558C26.5053 5.77236 25.714 5.44458 24.8889 5.44458Z" fill="#226699"/>
<path d="M15.5557 21.0001C15.5557 21.4127 15.3918 21.8084 15.1001 22.1001C14.8084 22.3918 14.4127 22.5557 14.0001 22.5557C13.5876 22.5557 13.1919 22.3918 12.9002 22.1001C12.6085 21.8084 12.4446 21.4127 12.4446 21.0001V7.00014C12.4446 6.58758 12.6085 6.19191 12.9002 5.90019C13.1919 5.60847 13.5876 5.44458 14.0001 5.44458C14.4127 5.44458 14.8084 5.60847 15.1001 5.90019C15.3918 6.19191 15.5557 6.58758 15.5557 7.00014V21.0001Z" fill="#292F33"/>
<path d="M13.9999 20.2221C13.9999 20.6346 13.836 21.0303 13.5443 21.322C13.2525 21.6137 12.8569 21.7776 12.4443 21.7776H3.11098C2.69842 21.7776 2.30275 21.6137 2.01103 21.322C1.71931 21.0303 1.55542 20.6346 1.55542 20.2221V6.22206C1.55542 5.8095 1.71931 5.41384 2.01103 5.12212C2.30275 4.83039 2.69842 4.6665 3.11098 4.6665H12.4443C12.8569 4.6665 13.2525 4.83039 13.5443 5.12212C13.836 5.41384 13.9999 5.8095 13.9999 6.22206V20.2221Z" fill="#99AAB5"/>
<path d="M14 20.2222C13.223 18.6682 11.1556 18.6666 10.8889 18.6666C9.33331 18.6666 6.99997 20.2222 4.66664 20.2222C3.88886 20.2222 3.11108 19.5253 3.11108 18.6666V6.22219C3.11108 5.36353 3.88886 4.66664 4.66664 4.66664C7.19831 4.66664 9.33331 3.11108 10.8889 3.11108C13.2222 3.11108 14 4.58575 14 5.44442V20.2222Z" fill="#E1E8ED"/>
<path d="M26.4444 20.2221C26.4444 20.6346 26.2806 21.0303 25.9888 21.322C25.6971 21.6137 25.3014 21.7776 24.8889 21.7776H15.5556C15.143 21.7776 14.7473 21.6137 14.4556 21.322C14.1639 21.0303 14 20.6346 14 20.2221V6.22206C14 5.8095 14.1639 5.41384 14.4556 5.12212C14.7473 4.83039 15.143 4.6665 15.5556 4.6665H24.8889C25.3014 4.6665 25.6971 4.83039 25.9888 5.12212C26.2806 5.41384 26.4444 5.8095 26.4444 6.22206V20.2221Z" fill="#99AAB5"/>
<path d="M14 20.2222C14.777 18.6682 16.8443 18.6666 17.1111 18.6666C18.6667 18.6666 21 20.2222 23.3333 20.2222C24.1111 20.2222 24.8889 19.5253 24.8889 18.6666V6.22219C24.8889 5.36353 24.1111 4.66664 23.3333 4.66664C20.8009 4.66664 18.6667 3.11108 17.1111 3.11108C14.7778 3.11108 14 4.58575 14 5.44442V20.2222Z" fill="#CCD6DD"/>
</svg>
