<svg width="24" height="24" viewBox="0 0 24 24" fill="none" xmlns="http://www.w3.org/2000/svg">
<path d="M16.125 13.5C17.6168 13.5 19.0476 12.9074 20.1025 11.8525C21.1574 10.7976 21.75 9.36684 21.75 7.875C21.75 6.38316 21.1574 4.95242 20.1025 3.89752C19.0476 2.84263 17.6168 2.25 16.125 2.25C14.6332 2.25 13.2024 2.84263 12.1475 3.89752C11.0926 4.95242 10.5 6.38316 10.5 7.875C10.5 9.36684 11.0926 10.7976 12.1475 11.8525C13.2024 12.9074 14.6332 13.5 16.125 13.5ZM8.0625 10.7812C8.0625 11.6018 7.73655 12.3887 7.15636 12.9689C6.57617 13.5491 5.78926 13.875 4.96875 13.875C4.14824 13.875 3.36133 13.5491 2.78114 12.9689C2.20095 12.3887 1.875 11.6018 1.875 10.7812C1.875 9.96074 2.20095 9.17383 2.78114 8.59364C3.36133 8.01345 4.14824 7.6875 4.96875 7.6875C5.78926 7.6875 6.57617 8.01345 7.15636 8.59364C7.73655 9.17383 8.0625 9.96074 8.0625 10.7812ZM14.6993 18.375C14.6993 19.3893 14.2963 20.362 13.5792 21.0792C12.862 21.7963 11.8893 22.1993 10.875 22.1993C9.86075 22.1993 8.88803 21.7963 8.17085 21.0792C7.45366 20.362 7.05075 19.3893 7.05075 18.375C7.05075 17.3607 7.45366 16.388 8.17085 15.6708C8.88803 14.9537 9.86075 14.5507 10.875 14.5507C11.8893 14.5507 12.862 14.9537 13.5792 15.6708C14.2963 16.388 14.6993 17.3607 14.6993 18.375Z" fill="#E0AEF8"/>
<path d="M21.75 7.87506C21.7503 9.13465 21.3278 10.3579 20.5503 11.3488C19.7727 12.3398 18.685 13.041 17.4615 13.3403C18.0363 12.9282 18.5145 12.3959 18.863 11.7805C19.2115 11.165 19.4219 10.4811 19.4796 9.77618C19.5373 9.07127 19.441 8.36224 19.1972 7.69829C18.9535 7.03435 18.5681 6.4314 18.068 5.93128C17.5679 5.43116 16.965 5.04586 16.301 4.8021C15.6371 4.55834 14.928 4.46197 14.2231 4.51968C13.5182 4.57739 12.8343 4.78779 12.2188 5.13628C11.6034 5.48477 11.0711 5.96301 10.659 6.53781C10.984 5.19988 11.7885 4.02763 12.92 3.24313C14.0515 2.45863 15.4314 2.11637 16.7983 2.28118C18.1653 2.446 19.4243 3.10644 20.3369 4.1374C21.2495 5.16835 21.7523 6.49822 21.75 7.87506ZM14.625 18.3751C14.6254 18.9287 14.503 19.4755 14.2666 19.9761C14.0301 20.4768 13.6856 20.9187 13.2577 21.2701C13.5229 20.5336 13.5731 19.7368 13.4023 18.9729C13.2316 18.2089 12.847 17.5094 12.2935 16.9558C11.74 16.4023 11.0404 16.0177 10.2764 15.847C9.5125 15.6762 8.71575 15.7264 7.97925 15.9916C8.47022 15.3949 9.13354 14.9644 9.87849 14.7591C10.6234 14.5537 11.4136 14.5835 12.141 14.8444C12.8683 15.1053 13.4974 15.5845 13.942 16.2164C14.3866 16.8484 14.6252 17.6023 14.625 18.3751Z" fill="#C4BBF9"/>
<path d="M22.1249 7.87509C22.1253 9.11664 21.7404 10.3277 21.0235 11.3414C20.3066 12.355 19.2929 13.1213 18.1222 13.5346C18.8799 13.1097 19.5289 12.515 20.0184 11.7972C20.5078 11.0795 20.8243 10.2581 20.9431 9.39747C21.0619 8.53688 20.9797 7.66046 20.703 6.83694C20.4263 6.01342 19.9627 5.26518 19.3484 4.65087C18.7341 4.03657 17.9858 3.5729 17.1623 3.29623C16.3388 3.01956 15.4624 2.93739 14.6018 3.05618C13.7412 3.17497 12.9198 3.49148 12.202 3.9809C11.4842 4.47032 10.8896 5.11934 10.4647 5.87709C10.9347 4.54041 11.8626 3.4132 13.0841 2.6951C14.3055 1.97699 15.7417 1.71433 17.1383 1.95363C18.5348 2.19294 19.8016 2.91876 20.7143 4.00255C21.627 5.08635 22.1267 6.45818 22.1249 7.87509ZM14.8477 18.1621C14.8486 18.988 14.5632 19.7888 14.0399 20.4278C14.2692 19.7397 14.313 19.0033 14.1669 18.2929C14.0208 17.5824 13.6899 16.9231 13.2077 16.3813C12.7255 15.8395 12.1089 15.4345 11.4202 15.207C10.7315 14.9795 9.99497 14.9376 9.28491 15.0856C9.86126 14.7352 10.5229 14.5502 11.1974 14.5508C13.2134 14.5508 14.8477 16.1678 14.8477 18.1621Z" fill="#AEDDFF"/>
<path d="M22.125 6C22.347 6.588 22.4513 7.593 22.4888 8.25C22.41 9.62697 21.8847 10.9408 20.9925 11.9925C19.8817 12.933 18.4447 13.875 16.875 13.875C16.7422 13.875 16.6102 13.7685 16.4797 13.662C16.3597 13.566 16.242 13.47 16.125 13.4565C17.0703 13.3448 17.9787 13.0227 18.7833 12.514C19.5879 12.0054 20.2684 11.3229 20.7748 10.5169C21.2812 9.71081 21.6006 8.80157 21.7097 7.85591C21.8187 6.91025 21.7146 5.95217 21.405 5.052C21.75 5.25 21.948 5.52975 22.125 6ZM8.24475 11.0625C8.241 10.3695 7.98975 9.64725 7.6845 9.3795C7.85321 9.8586 7.91161 10.3696 7.85534 10.8744C7.79908 11.3792 7.62959 11.8648 7.35953 12.295C7.08946 12.7252 6.72578 13.0889 6.29559 13.3589C5.8654 13.629 5.37981 13.7985 4.875 13.8548C4.93275 13.8608 4.9845 13.8923 5.0355 13.9223C5.09325 13.9568 5.151 13.992 5.2185 13.992C6.05475 13.992 6.79875 13.7145 7.4415 13.0665C8.0355 12.468 8.25 11.9055 8.24475 11.0625ZM14.3602 16.542C14.3962 16.599 14.4313 16.6528 14.4653 16.7033C14.6048 16.9155 14.7218 17.094 14.8088 17.3655C14.9175 17.706 14.979 18.1905 14.9963 18.5625C14.9547 19.4997 14.5937 20.3945 13.9733 21.0983C13.2465 21.7373 12.255 22.2705 11.211 22.2705C11.145 22.2705 11.091 22.23 11.0355 22.1888C10.9845 22.1513 10.9335 22.1138 10.8742 22.1078C11.5075 22.0503 12.1188 21.8472 12.6606 21.5144C13.2023 21.1816 13.6598 20.7281 13.9973 20.1892C14.3348 19.6504 14.5431 19.0408 14.6061 18.4081C14.6691 17.7755 14.5849 17.1368 14.3602 16.542Z" fill="#FCD53F"/>
<path d="M22.4894 8.25011C22.4969 8.12611 22.5004 8.00111 22.4999 7.87511C22.5008 6.9993 22.3208 6.13275 21.9712 5.32976C21.6216 4.52676 21.1099 3.80463 20.4682 3.20861C19.41 2.48452 18.1572 2.09804 16.8749 2.10011C16.3117 2.10011 15.7649 2.17286 15.2452 2.31011C15.5327 2.27011 15.8259 2.25011 16.1249 2.25011C17.7509 2.24997 19.3154 2.8711 20.4985 3.98643C21.6816 5.10176 22.3938 6.62699 22.4894 8.25011ZM8.24995 10.8751C8.24995 10.9381 8.2482 11.0006 8.2447 11.0626C8.19856 10.2336 7.84848 9.45074 7.2614 8.86366C6.67432 8.27657 5.89143 7.92649 5.06245 7.88036C5.09375 7.87541 5.12365 7.86391 5.1502 7.84661C5.1786 7.82876 5.21063 7.81748 5.24395 7.81361C6.49645 7.88036 6.85195 8.17961 7.44145 8.68361C7.96437 9.2939 8.25122 10.0714 8.24995 10.8751ZM14.9954 18.5626C15.0456 17.4964 14.679 16.4526 13.9732 15.6519C13.2577 14.9769 12.4034 14.5336 11.3422 14.4894C11.3107 14.4894 11.2552 14.5246 11.1997 14.5599C11.159 14.5906 11.1133 14.6142 11.0647 14.6296C12.0923 14.677 13.0652 15.1066 13.7924 15.8342C14.5196 16.5619 14.9487 17.535 14.9954 18.5626ZM11.2499 22.1251C12.2525 22.1265 13.2211 21.7613 13.9732 21.0984C13.5861 21.5388 13.1095 21.8916 12.5752 22.1334C12.041 22.3751 11.4613 22.5001 10.8749 22.5001C9.82969 22.5015 8.82316 22.1046 8.0602 21.3901C7.12495 20.1526 6.9502 19.3576 7.12495 18.0001C7.12495 19.0941 7.55955 20.1433 8.33313 20.9169C9.10672 21.6905 10.1559 22.1251 11.2499 22.1251ZM5.24995 13.8751C6.05363 13.8764 6.83115 13.5895 7.44145 13.0666C7.12496 13.4381 6.73152 13.7363 6.28837 13.9406C5.84522 14.145 5.36295 14.2506 4.87495 14.2501C4.40727 14.2501 3.94469 14.1529 3.51656 13.9647C3.08843 13.7764 2.7041 13.5012 2.38795 13.1566C1.9522 12.4194 1.77295 11.7361 1.77295 10.8564C1.78945 10.7994 1.79845 10.7551 1.80595 10.7146C1.81677 10.6397 1.84009 10.5672 1.87495 10.5001C1.87495 11.3952 2.23053 12.2537 2.86346 12.8866C3.4964 13.5195 4.35484 13.8751 5.24995 13.8751ZM12.0074 12.7426C13.1575 13.7179 14.617 14.2522 16.1249 14.2501C17.0518 14.2512 17.9676 14.0497 18.8084 13.6598C19.6492 13.2698 20.3946 12.7008 20.9924 11.9926C20.113 12.7363 19.0484 13.2279 17.912 13.4151C16.7755 13.6024 15.6095 13.4782 14.538 13.0559C13.4664 12.6336 12.5292 11.929 11.826 11.0168C11.1228 10.1045 10.6799 9.01888 10.5442 7.87511C10.5292 7.99211 10.4339 8.11061 10.3379 8.22986C10.2314 8.36036 10.1249 8.49236 10.1249 8.62511C10.1249 10.1949 11.0669 11.6319 12.0074 12.7426Z" fill="#FF6DC6"/>
<path d="M18.7266 8.22682C18.976 8.19329 19.2192 8.12408 19.4489 8.02132C19.651 7.53561 19.7026 7.00038 19.5969 6.48501C19.4912 5.96964 19.2331 5.4979 18.8561 5.13094C18.4792 4.76398 18.0006 4.51873 17.4826 4.42697C16.9646 4.33521 16.4309 4.40118 15.9509 4.61632C15.8633 4.82668 15.8036 5.04753 15.7731 5.27332C16.1737 5.21919 16.5814 5.2583 16.9644 5.38761C17.3474 5.51692 17.6953 5.73294 17.9811 6.01882C18.267 6.30461 18.483 6.65256 18.6123 7.03555C18.7416 7.41855 18.7807 7.82623 18.7266 8.22682ZM6.6171 11.1173C6.52695 11.158 6.43299 11.1896 6.3366 11.2118C6.3616 11.1038 6.37435 10.9916 6.37485 10.8751C6.375 10.6493 6.32419 10.4265 6.22621 10.2231C6.12823 10.0197 5.9856 9.84106 5.80897 9.70047C5.63234 9.55989 5.42626 9.46099 5.20608 9.41114C4.9859 9.36129 4.75731 9.36178 4.53735 9.41257C4.57335 9.24607 4.6326 9.13282 4.6326 9.13282C4.91033 9.00737 5.21968 8.96948 5.51947 9.02421C5.81926 9.07893 6.09527 9.22368 6.31076 9.43916C6.52625 9.65465 6.67099 9.93066 6.72572 10.2305C6.78044 10.5302 6.74256 10.8396 6.6171 11.1173ZM12.0449 18.7456C12.2549 18.6931 12.4424 18.6068 12.6074 18.4966C12.7349 17.7743 12.3621 17.1128 11.8101 16.7356C11.2581 16.3583 10.3491 16.2001 9.7896 16.5781C9.74823 16.7702 9.7386 16.9678 9.7611 17.1631C10.2721 17.0834 10.7942 17.2033 11.2193 17.4978C11.6444 17.7924 11.94 18.2391 12.0449 18.7456Z" fill="#EBCAFF"/>
<path d="M19.5936 4.4064C19.1566 3.9693 18.5795 3.70038 17.9637 3.64702C17.348 3.59365 16.7332 3.75925 16.2276 4.11465C16.1026 4.29265 16.0021 4.48015 15.9261 4.67715C16.4007 4.4928 16.9187 4.45047 17.417 4.55533C17.9153 4.66019 18.3723 4.9077 18.7324 5.26771C19.0925 5.62772 19.3401 6.08469 19.4451 6.58294C19.55 7.08119 19.5078 7.59921 19.3236 8.0739C19.5186 7.99815 19.7083 7.89765 19.8846 7.77315C20.2403 7.26754 20.4061 6.65262 20.3529 6.03672C20.2996 5.42082 20.0307 4.84348 19.5936 4.4064ZM6.85632 10.9816C6.78132 11.0341 6.70157 11.0794 6.61707 11.1174C6.74252 10.8397 6.78041 10.5303 6.72568 10.2305C6.67095 9.93074 6.52621 9.65473 6.31072 9.43924C6.09524 9.22375 5.81923 9.07901 5.51943 9.02429C5.21964 8.96956 4.91029 9.00744 4.63257 9.1329C4.68132 9.0354 4.72257 8.9619 4.76832 8.8929C5.01132 8.72415 5.30082 8.5584 5.61957 8.5584C5.99982 8.5584 6.45882 8.6604 6.72357 8.89365C7.03482 9.16815 7.20882 9.6564 7.20882 10.1041C7.20882 10.4229 7.02582 10.7386 6.85632 10.9816ZM12.5563 18.5304C12.7588 18.4059 12.9351 18.2439 13.0753 18.0534C13.4773 17.5089 13.0281 16.4341 12.5563 15.9954C11.9496 15.4306 10.7188 15.3631 10.1091 15.8664C9.94932 16.0839 9.83532 16.3374 9.78282 16.6134C10.0927 16.4872 10.4291 16.4402 10.7617 16.4766C11.0943 16.5131 11.4126 16.6318 11.6879 16.822C11.9631 17.0122 12.1866 17.268 12.3383 17.5663C12.4899 17.8646 12.5648 18.1959 12.5563 18.5304Z" fill="#EFD5FF"/>
<path d="M20.2311 7.48138C20.1054 7.60759 19.9672 7.72067 19.8186 7.81888C20.1514 7.31403 20.2998 6.70976 20.2387 6.10814C20.1776 5.50653 19.9107 4.94445 19.4831 4.51685C19.0555 4.08926 18.4934 3.82235 17.8918 3.76123C17.2902 3.70011 16.6859 3.84852 16.1811 4.18138C16.2781 4.03538 16.3906 3.89788 16.5186 3.76888C17.0109 3.27658 17.6786 3 18.3748 3C19.071 3 19.7388 3.27658 20.2311 3.76888C20.7234 4.26119 20.9999 4.92891 20.9999 5.62513C20.9999 6.32136 20.7234 6.98908 20.2311 7.48138ZM6.85631 10.9816C7.03641 10.8563 7.18682 10.693 7.29694 10.5032C7.40707 10.3135 7.47422 10.1019 7.49366 9.88331C7.51311 9.66477 7.48437 9.44462 7.40948 9.23839C7.33459 9.03216 7.21537 8.84486 7.06022 8.68972C6.90508 8.53458 6.71779 8.41535 6.51156 8.34046C6.30533 8.26557 6.08518 8.23684 5.86663 8.25628C5.64809 8.27573 5.43647 8.34288 5.2467 8.453C5.05693 8.56312 4.89363 8.71354 4.76831 8.89363C5.05716 8.69264 5.40748 8.5996 5.75799 8.63079C6.1085 8.66197 6.43689 8.8154 6.68572 9.06423C6.93455 9.31305 7.08797 9.64144 7.11916 9.99196C7.15034 10.3425 7.0573 10.6928 6.85631 10.9816ZM13.0221 18.1216C13.1789 17.9297 13.2954 17.708 13.3646 17.47C13.4338 17.2319 13.4543 16.9824 13.4248 16.7362C13.3953 16.4901 13.3164 16.2524 13.1929 16.0375C13.0694 15.8225 12.9038 15.6347 12.706 15.4853C12.5081 15.3358 12.2822 15.2279 12.0417 15.1678C11.8012 15.1077 11.551 15.0968 11.3062 15.1356C11.0614 15.1745 10.8269 15.2624 10.6168 15.394C10.4067 15.5256 10.2254 15.6983 10.0836 15.9016C10.4246 15.7129 10.813 15.6272 11.2018 15.6548C11.5906 15.6823 11.963 15.8221 12.274 16.057C12.585 16.2919 12.8212 16.612 12.954 16.9785C13.0867 17.3449 13.1104 17.742 13.0221 18.1216Z" fill="white"/>
<path d="M16.8749 2.25006C18.4447 2.25006 19.8817 2.81706 20.9924 3.75756C20.4226 3.08511 19.7195 2.53812 18.9276 2.15115C18.1357 1.76418 17.2721 1.54564 16.3914 1.50932C15.5108 1.473 14.6321 1.6197 13.811 1.94015C12.9899 2.26061 12.2442 2.74785 11.6209 3.3711C10.9977 3.99436 10.5104 4.74008 10.19 5.56118C9.86955 6.38228 9.72285 7.26091 9.75916 8.14158C9.79548 9.02224 10.014 9.88581 10.401 10.6777C10.788 11.4697 11.335 12.1727 12.0074 12.7426C11.2222 11.8144 10.7187 10.6811 10.5564 9.4762C10.3941 8.27133 10.5797 7.04516 11.0913 5.9423C11.6029 4.83944 12.4192 3.90586 13.444 3.25167C14.4687 2.59748 15.6591 2.24995 16.8749 2.25006ZM7.4414 8.68356C6.79554 8.13271 5.96582 7.84546 5.11762 7.87908C4.26942 7.9127 3.46503 8.2647 2.86479 8.86495C2.26455 9.46519 1.91254 10.2696 1.87892 11.1178C1.8453 11.966 2.13255 12.7957 2.6834 13.4416C2.32906 13.1393 2.0411 12.7671 1.83764 12.3481C1.63418 11.9292 1.51963 11.4727 1.50118 11.0073C1.48274 10.542 1.56081 10.0779 1.73047 9.64414C1.90014 9.21043 2.15774 8.81652 2.48705 8.48721C2.81636 8.15789 3.21027 7.9003 3.64399 7.73063C4.0777 7.56097 4.54184 7.4829 5.00719 7.50134C5.47255 7.51978 5.92905 7.63434 6.34797 7.8378C6.7669 8.04126 7.13919 8.32922 7.4414 8.68356ZM13.9732 15.6518C13.1859 14.9601 12.1648 14.5939 11.1174 14.6277C10.07 14.6615 9.07464 15.0927 8.3336 15.8338C7.59255 16.5748 7.16135 17.5701 7.12756 18.6176C7.09376 19.665 7.45992 20.686 8.15166 21.4733C7.7279 21.101 7.38501 20.6457 7.14419 20.1356C6.90337 19.6255 6.76973 19.0714 6.75154 18.5076C6.73335 17.9438 6.831 17.3822 7.03844 16.8576C7.24588 16.3331 7.5587 15.8566 7.95758 15.4577C8.35646 15.0589 8.83291 14.746 9.35748 14.5386C9.88206 14.3312 10.4436 14.2335 11.0074 14.2517C11.5712 14.2699 12.1253 14.4035 12.6354 14.6443C13.1455 14.8852 13.6008 15.2281 13.9732 15.6518Z" fill="#26C9FC"/>
</svg>
