<svg width="163" height="18" viewBox="0 0 163 18" fill="none" xmlns="http://www.w3.org/2000/svg">
<g clip-path="url(#clip0_478_3732)">
<rect x="4" y="1" width="16" height="16" rx="8" fill="#F3A7CA"/>
<path d="M34.4039 5.89844H32.9156V7.23438H34.4039V8.16016H32.9156V9.69531H31.8023V3.49609H32.9156V4.98438H34.4039V5.89844ZM27.6187 4.10547C28.15 4.10547 28.6266 4.21094 29.0484 4.42188C29.4742 4.63281 29.8082 4.92773 30.0504 5.30664C30.2926 5.68555 30.4156 6.11719 30.4195 6.60156C30.4156 7.08203 30.2926 7.51172 30.0504 7.89062C29.8082 8.26562 29.4742 8.56055 29.0484 8.77539C28.6266 8.98633 28.15 9.09375 27.6187 9.09766C27.0875 9.09375 26.609 8.98633 26.1832 8.77539C25.7574 8.56055 25.4234 8.26562 25.1812 7.89062C24.943 7.51172 24.8258 7.08203 24.8297 6.60156C24.8258 6.11719 24.943 5.68555 25.1812 5.30664C25.4234 4.92773 25.7574 4.63281 26.1832 4.42188C26.609 4.21094 27.0875 4.10547 27.6187 4.10547ZM27.6187 5.04297C27.2945 5.04297 27.0016 5.10938 26.7398 5.24219C26.482 5.37109 26.2789 5.55469 26.1305 5.79297C25.9859 6.02734 25.9156 6.29688 25.9195 6.60156C25.9156 6.90625 25.9859 7.17773 26.1305 7.41602C26.275 7.65039 26.4762 7.83203 26.734 7.96094C26.9957 8.08984 27.2906 8.15625 27.6187 8.16016C27.9469 8.15625 28.2398 8.08984 28.4977 7.96094C28.7594 7.83203 28.9625 7.65039 29.107 7.41602C29.2555 7.17773 29.3297 6.90625 29.3297 6.60156C29.3297 6.29688 29.2555 6.02734 29.107 5.79297C28.9586 5.55469 28.7535 5.37109 28.4918 5.24219C28.234 5.10938 27.943 5.04297 27.6187 5.04297ZM29.5289 9.97656C30.2398 9.97656 30.857 10.0566 31.3805 10.2168C31.9039 10.373 32.3062 10.6016 32.5875 10.9023C32.8687 11.2031 33.0094 11.5625 33.0094 11.9805C33.0094 12.3945 32.8687 12.752 32.5875 13.0527C32.3062 13.3535 31.9039 13.582 31.3805 13.7383C30.857 13.8984 30.2398 13.9766 29.5289 13.9727C28.8102 13.9766 28.1852 13.8984 27.6539 13.7383C27.1227 13.582 26.7145 13.3535 26.4293 13.0527C26.1441 12.752 26.0016 12.3945 26.0016 11.9805C26.0016 11.5625 26.1441 11.2031 26.4293 10.9023C26.7145 10.6016 27.1207 10.373 27.648 10.2168C28.1793 10.0566 28.8062 9.97656 29.5289 9.97656ZM29.5289 10.8789C28.7633 10.8789 28.1676 10.9746 27.7418 11.166C27.3199 11.3574 27.1109 11.6289 27.1148 11.9805C27.1109 12.3359 27.3199 12.6094 27.7418 12.8008C28.1637 12.9883 28.7594 13.082 29.5289 13.082C30.2906 13.082 30.8785 12.9883 31.2926 12.8008C31.7105 12.6094 31.9195 12.3359 31.9195 11.9805C31.9195 11.6289 31.7105 11.3574 31.2926 11.166C30.8746 10.9746 30.2867 10.8789 29.5289 10.8789ZM43.8305 5.875H35.1937V4.97266H38.9672V3.64844H40.0687V4.97266H43.8305V5.875ZM44.3461 12.8125H34.7367V11.9102H38.9672V10.5215C38.3539 10.4824 37.8266 10.3789 37.3852 10.2109C36.9437 10.0391 36.6039 9.81055 36.3656 9.52539C36.1312 9.23633 36.0141 8.89844 36.0141 8.51172C36.0141 8.09375 36.1547 7.73438 36.4359 7.43359C36.7172 7.13281 37.1215 6.9043 37.6488 6.74805C38.1762 6.58789 38.7992 6.50781 39.518 6.50781C40.2328 6.50781 40.852 6.58789 41.3754 6.74805C41.8988 6.9043 42.3012 7.13281 42.5824 7.43359C42.8676 7.73438 43.0102 8.09375 43.0102 8.51172C43.0102 8.89453 42.891 9.23047 42.6527 9.51953C42.4184 9.80859 42.0805 10.0391 41.6391 10.2109C41.1977 10.3789 40.6742 10.4824 40.0687 10.5215V11.9102H44.3461V12.8125ZM39.518 7.38672C38.7641 7.38672 38.1801 7.48438 37.766 7.67969C37.352 7.875 37.1469 8.15234 37.1508 8.51172C37.1469 8.87109 37.35 9.14844 37.7602 9.34375C38.1742 9.53906 38.7602 9.64062 39.518 9.64844C40.2641 9.64062 40.8422 9.53906 41.2523 9.34375C41.6664 9.14844 41.8734 8.87109 41.8734 8.51172C41.8734 8.15234 41.6664 7.875 41.2523 7.67969C40.8383 7.48438 40.2602 7.38672 39.518 7.38672Z" fill="black"/>
<rect x="61" y="1" width="16" height="16" rx="8" fill="#E4679D"/>
<path d="M91.2398 10.3164H86.9742V13.9844H85.8844V10.3164H81.6656V9.41406H91.2398V10.3164ZM90.3375 5.00781H87.0914C87.0953 5.43359 87.2594 5.83984 87.5836 6.22656C87.9117 6.60938 88.3512 6.93555 88.902 7.20508C89.4527 7.4707 90.0562 7.64844 90.7125 7.73828L90.3023 8.61719C89.7281 8.52734 89.1871 8.37695 88.6793 8.16602C88.1715 7.95117 87.7262 7.68555 87.3434 7.36914C86.9605 7.04883 86.6637 6.69141 86.4527 6.29688C86.1363 6.89062 85.6344 7.39258 84.9469 7.80273C84.2633 8.20898 83.4898 8.48047 82.6266 8.61719L82.2047 7.73828C82.8531 7.64844 83.4508 7.4707 83.9977 7.20508C84.5484 6.93555 84.9879 6.60938 85.316 6.22656C85.6441 5.83984 85.8141 5.43359 85.8258 5.00781H82.5562V4.11719H90.3375V5.00781ZM95.1586 4.24609C95.7055 4.24219 96.1957 4.3457 96.6293 4.55664C97.0629 4.76758 97.4008 5.06445 97.643 5.44727C97.8891 5.82617 98.0141 6.25781 98.018 6.74219C98.0141 7.22656 97.8891 7.66016 97.643 8.04297C97.4008 8.42188 97.0629 8.71875 96.6293 8.93359C96.1957 9.14453 95.7055 9.25 95.1586 9.25C94.6117 9.25 94.1195 9.14453 93.682 8.93359C93.2484 8.71875 92.9086 8.42188 92.6625 8.04297C92.4164 7.66016 92.2953 7.22656 92.2992 6.74219C92.2953 6.25781 92.4164 5.82617 92.6625 5.44727C92.9086 5.06445 93.2484 4.76758 93.682 4.55664C94.1195 4.3457 94.6117 4.24219 95.1586 4.24609ZM95.1586 5.20703C94.8187 5.20703 94.5141 5.27148 94.2445 5.40039C93.9789 5.52539 93.7699 5.70508 93.6176 5.93945C93.4691 6.16992 93.3969 6.4375 93.4008 6.74219C93.3969 7.04688 93.4691 7.31641 93.6176 7.55078C93.7699 7.78125 93.9789 7.96094 94.2445 8.08984C94.5141 8.21484 94.8187 8.27734 95.1586 8.27734C95.4984 8.27734 95.8012 8.21484 96.0668 8.08984C96.3363 7.96094 96.5473 7.78125 96.6996 7.55078C96.852 7.31641 96.9281 7.04688 96.9281 6.74219C96.9281 6.4375 96.852 6.16992 96.6996 5.93945C96.5473 5.70508 96.3363 5.52539 96.0668 5.40039C95.8012 5.27148 95.4984 5.20703 95.1586 5.20703ZM100.42 14.0195H99.307V3.49609H100.42V14.0195ZM91.7953 10.832C93.0922 10.832 94.3031 10.8105 95.4281 10.7676C96.557 10.7207 97.6312 10.625 98.6508 10.4805L98.7328 11.2891C97.6859 11.4922 96.6215 11.6211 95.5395 11.6758C94.4613 11.7305 93.2602 11.7578 91.9359 11.7578L91.7953 10.832Z" fill="black"/>
<rect x="118" y="1" width="16" height="16" rx="8" fill="#6F2B4D"/>
<path d="M142.111 3.97656C142.634 3.97656 143.103 4.06836 143.517 4.25195C143.931 4.43555 144.255 4.69336 144.49 5.02539C144.724 5.35352 144.841 5.73047 144.841 6.15625C144.841 6.57812 144.724 6.95508 144.49 7.28711C144.255 7.61914 143.931 7.87695 143.517 8.06055C143.103 8.24023 142.634 8.32812 142.111 8.32422C141.587 8.32812 141.121 8.24023 140.711 8.06055C140.3 7.87695 139.98 7.62109 139.75 7.29297C139.519 6.96094 139.404 6.58203 139.404 6.15625C139.404 5.73047 139.519 5.35156 139.75 5.01953C139.98 4.6875 140.3 4.43164 140.711 4.25195C141.121 4.06836 141.587 3.97656 142.111 3.97656ZM142.111 4.87891C141.795 4.87891 141.511 4.93164 141.261 5.03711C141.015 5.14258 140.822 5.29297 140.681 5.48828C140.545 5.67969 140.478 5.90234 140.482 6.15625C140.478 6.40625 140.545 6.62695 140.681 6.81836C140.822 7.00977 141.017 7.1582 141.267 7.26367C141.517 7.36523 141.798 7.41406 142.111 7.41016C142.431 7.41406 142.718 7.36523 142.972 7.26367C143.226 7.1582 143.423 7.00977 143.564 6.81836C143.705 6.62695 143.775 6.40625 143.775 6.15625C143.775 5.90234 143.705 5.67969 143.564 5.48828C143.423 5.29297 143.226 5.14258 142.972 5.03711C142.722 4.93164 142.435 4.87891 142.111 4.87891ZM147.396 13.9961H146.295V3.50781H147.396V13.9961ZM138.654 9.14453C139.896 9.14453 141.101 9.11914 142.269 9.06836C143.441 9.01367 144.541 8.91016 145.568 8.75781L145.65 9.58984C144.791 9.75391 143.818 9.875 142.732 9.95312V13.668H141.619V10.0117C140.955 10.043 140.017 10.0625 138.806 10.0703L138.654 9.14453ZM157.491 9.85938H156.377V7.57422H154.737V6.64844H156.377V3.49609H157.491V9.85938ZM157.491 13.8672H150.565V10.375H157.491V13.8672ZM151.666 12.9648H156.401V11.2539H151.666V12.9648ZM154.901 5.42969H148.748V4.53906H151.28V3.40234H152.381V4.53906H154.901V5.42969ZM151.83 5.91016C152.307 5.91016 152.731 5.99023 153.102 6.15039C153.477 6.30664 153.768 6.52734 153.975 6.8125C154.186 7.09766 154.291 7.42188 154.291 7.78516C154.291 8.15625 154.186 8.48438 153.975 8.76953C153.768 9.05469 153.477 9.27539 153.102 9.43164C152.731 9.58789 152.307 9.66797 151.83 9.67188C151.354 9.66797 150.928 9.58789 150.553 9.43164C150.178 9.27539 149.885 9.05469 149.674 8.76953C149.463 8.48438 149.358 8.15625 149.358 7.78516C149.358 7.42188 149.463 7.09961 149.674 6.81836C149.885 6.5332 150.178 6.31055 150.553 6.15039C150.928 5.99023 151.354 5.91016 151.83 5.91016ZM151.83 6.76562C151.553 6.76172 151.307 6.80273 151.092 6.88867C150.881 6.9707 150.717 7.08984 150.6 7.24609C150.483 7.40234 150.424 7.58203 150.424 7.78516C150.424 8.10547 150.551 8.35938 150.805 8.54688C151.063 8.73438 151.405 8.82812 151.83 8.82812C152.248 8.82812 152.584 8.73438 152.838 8.54688C153.096 8.35938 153.225 8.10547 153.225 7.78516C153.225 7.58203 153.166 7.40234 153.049 7.24609C152.932 7.08984 152.768 6.9707 152.557 6.88867C152.346 6.80273 152.104 6.76172 151.83 6.76562Z" fill="black"/>
</g>
<defs>
<clipPath id="clip0_478_3732">
<rect width="163" height="18" fill="white"/>
</clipPath>
</defs>
</svg>
