<svg width="28" height="28" viewBox="0 0 28 28" fill="none" xmlns="http://www.w3.org/2000/svg">
<path d="M23.9315 22.4483C23.5772 21.8008 24.03 21.1445 24.8022 20.3308C26.0272 19.038 27.3615 16.0433 26.1234 13.0005C26.13 12.983 25.8784 12.4711 25.8872 12.4536L25.3753 12.4273C25.2112 12.4033 19.609 12.3923 14.0003 12.3923C8.39155 12.3923 2.78936 12.4033 2.6253 12.4273C2.6253 12.4273 1.87061 12.983 1.87717 12.9983C0.639046 16.0411 1.97342 19.0358 3.19842 20.3286C3.97061 21.1423 4.42342 21.8008 4.06905 22.4461C3.72561 23.0739 2.69967 23.1658 2.69967 23.1658C2.69967 23.1658 2.93592 23.8089 3.50686 24.1545C4.03405 24.4739 4.68155 24.5505 5.12998 24.5614C5.12998 24.5614 6.87998 26.983 11.4562 26.983H16.5487C21.125 26.983 22.875 24.5614 22.875 24.5614C23.3234 24.5505 23.9709 24.4761 24.4981 24.1545C25.069 23.8089 25.3053 23.1658 25.3053 23.1658C25.3053 23.1658 24.2772 23.0761 23.9315 22.4483Z" fill="#543930"/>
<path d="M13.9976 26.9851V24.2967L22.1307 23.6536L22.8701 24.5636C22.8701 24.5636 21.1201 26.9851 16.5438 26.9851H13.9976Z" fill="url(#paint0_radial_2613_2691)"/>
<path d="M22.8503 23.391C21.6319 21.5404 24.3335 20.8513 24.3335 20.8513L24.3357 20.8535C23.8653 21.4376 23.6532 21.9473 23.9288 22.4482C24.2722 23.076 25.2982 23.1679 25.2982 23.1679C25.2982 23.1679 23.9025 24.4104 22.8503 23.391Z" fill="url(#paint1_radial_2613_2691)"/>
<path d="M26.1293 12.9981C27.339 15.9447 26.0658 18.9787 24.8737 20.2584C24.7096 20.4334 24.0162 21.1159 23.8587 21.6584C23.8587 21.6584 21.1418 17.8719 20.3324 15.645C20.1683 15.1965 20.0196 14.7328 19.9999 14.2559C19.9846 13.8972 20.0415 13.4706 20.2471 13.1665C20.5008 12.7925 25.9849 12.6831 25.9849 12.6831C25.9849 12.6875 26.1293 12.9981 26.1293 12.9981Z" fill="url(#paint2_radial_2613_2691)"/>
<path d="M1.87708 12.9981C0.669583 15.9447 1.94052 18.9787 3.13271 20.2584C3.29677 20.4334 3.99021 21.1159 4.14771 21.6584C4.14771 21.6584 6.86458 17.8719 7.67396 15.645C7.83802 15.1965 7.98677 14.7328 8.00646 14.2559C8.02177 13.8972 7.9649 13.4706 7.75927 13.1665C7.50552 12.7925 7.21021 12.8931 6.78146 12.8931C5.96115 12.8931 2.37365 12.6831 2.09583 12.6831C2.09583 12.6875 1.87708 12.9981 1.87708 12.9981Z" fill="url(#paint3_radial_2613_2691)"/>
<path d="M14.0087 26.9851V24.2967L5.87561 23.6536L5.13623 24.5636C5.13623 24.5636 6.88623 26.9851 11.4625 26.9851H14.0087Z" fill="url(#paint4_radial_2613_2691)"/>
<path d="M5.15582 23.391C6.37426 21.5404 3.6727 20.8513 3.6727 20.8513L3.67051 20.8535C4.14082 21.4376 4.35301 21.9473 4.07738 22.4482C3.73395 23.076 2.70801 23.1679 2.70801 23.1679C2.70801 23.1679 4.10363 24.4104 5.15582 23.391Z" fill="url(#paint5_radial_2613_2691)"/>
<path d="M21.7768 14.0808H6.22369C4.54588 14.0808 3.17432 15.5421 3.17432 17.3292C3.17432 19.1164 4.54588 20.5777 6.22369 20.5777H21.779C23.4568 20.5777 24.8284 19.1164 24.8284 17.3292C24.8284 15.5421 23.4546 14.0808 21.7768 14.0808Z" fill="#E59600"/>
<path d="M14.0001 2.87671C9.04764 2.87671 4.46045 8.17265 4.46045 15.7961C4.46045 23.378 9.18764 27.1251 14.0001 27.1251C18.8126 27.1251 23.5398 23.378 23.5398 15.7961C23.5398 8.17483 18.9526 2.87671 14.0001 2.87671Z" fill="#FFCA28"/>
<path d="M15.0977 19.0946C15.0683 19.0825 15.0374 19.0744 15.0058 19.0706H12.9933C12.9627 19.0749 12.9321 19.0815 12.9015 19.0946C12.7199 19.169 12.6193 19.3571 12.7046 19.5584C12.7921 19.7596 13.1924 20.324 13.9996 20.324C14.8068 20.324 15.2071 19.7596 15.2946 19.5584C15.3821 19.3571 15.2815 19.169 15.0977 19.0946Z" fill="#E59600"/>
<path d="M16.3949 21.374C15.4893 21.9122 12.5165 21.9122 11.6108 21.374C11.0902 21.0634 10.5586 21.5381 10.7752 22.0106C10.9874 22.4744 12.6083 23.555 14.0105 23.555C15.4127 23.555 17.0118 22.4765 17.2261 22.0106C17.4405 21.5381 16.9155 21.0656 16.3949 21.374Z" fill="#795548"/>
<path d="M9.38396 17.8893C10.1475 17.8893 10.7665 17.2478 10.7665 16.4565C10.7665 15.6652 10.1475 15.0237 9.38396 15.0237C8.62043 15.0237 8.00146 15.6652 8.00146 16.4565C8.00146 17.2478 8.62043 17.8893 9.38396 17.8893Z" fill="#404040"/>
<path d="M18.6149 17.8893C19.3785 17.8893 19.9974 17.2478 19.9974 16.4565C19.9974 15.6652 19.3785 15.0237 18.6149 15.0237C17.8514 15.0237 17.2324 15.6652 17.2324 16.4565C17.2324 17.2478 17.8514 17.8893 18.6149 17.8893Z" fill="#404040"/>
<path d="M11.4384 13.8841C11.1759 13.5363 10.5656 13.0288 9.38433 13.0288C8.20308 13.0288 7.59276 13.5363 7.33026 13.8841C7.21433 14.0394 7.24277 14.2166 7.3237 14.3238C7.39808 14.4244 7.61902 14.5163 7.86402 14.4332C8.10902 14.3501 8.58589 14.1029 9.38433 14.0985C10.1828 14.1051 10.6618 14.3501 10.9046 14.4332C11.1475 14.5163 11.3706 14.4244 11.445 14.3238C11.5259 14.2166 11.5543 14.0394 11.4384 13.8841ZM20.6718 13.8841C20.4093 13.5363 19.799 13.0288 18.6178 13.0288C17.4365 13.0288 16.8262 13.5363 16.5637 13.8841C16.4478 14.0394 16.4762 14.2166 16.5571 14.3238C16.6315 14.4244 16.8525 14.5163 17.0975 14.4332C17.3425 14.3501 17.8193 14.1029 18.6178 14.0985C19.4162 14.1051 19.8953 14.3501 20.1381 14.4332C20.3831 14.5163 20.604 14.4244 20.6784 14.3238C20.7571 14.2166 20.7878 14.0394 20.6718 13.8841Z" fill="#6D4C41"/>
<path d="M25.4054 6.87076C24.7098 5.81857 23.1545 4.40982 21.7567 4.31795C21.5336 2.97482 20.0942 1.83732 18.7029 1.39545C14.9383 0.203262 12.4861 1.53982 11.1714 2.25732C10.8979 2.40607 9.13045 3.38607 7.89451 2.68389C7.12013 2.2442 7.13545 1.05201 7.13545 1.05201C7.13545 1.05201 4.70951 1.97514 5.53857 4.55201C4.70513 4.58701 3.61138 4.93701 3.03388 6.10732C2.34482 7.50076 2.58982 8.6667 2.78888 9.22451C2.07138 9.83264 1.17013 11.1298 1.7892 12.812C2.25513 14.0786 4.11451 14.6604 4.11451 14.6604C3.98326 16.9398 4.40763 18.3442 4.63295 18.9108C4.67232 19.0092 4.81451 19.0004 4.83857 18.8976C5.11857 17.7689 6.08107 13.8336 5.98482 13.1467C5.98482 13.1467 9.21357 12.5058 12.2936 10.2395C12.9214 9.77795 13.5995 9.3842 14.3214 9.09764C18.1889 7.55764 18.9983 10.1848 18.9983 10.1848C18.9983 10.1848 21.6779 9.67076 22.4873 13.3939C22.7914 14.7895 22.997 17.0229 23.1698 18.5848C23.1829 18.6942 23.3317 18.7183 23.3754 18.6154C23.6467 17.9964 24.187 16.7648 24.3161 15.5114C24.362 15.0695 25.552 14.4854 26.0617 12.5911C26.7486 10.0601 25.9064 7.62982 25.4054 6.87076Z" fill="#543930"/>
<path d="M24.3078 15.5201C24.3537 15.0782 25.5437 14.4942 26.0534 12.5998C26.1081 12.3985 26.154 12.1929 26.1956 11.9873C26.6112 9.68386 25.8653 7.57073 25.4015 6.87073C24.7584 5.89948 23.3803 4.62417 22.0721 4.36386C21.9584 4.34854 21.8468 4.33542 21.7418 4.32886C21.7418 4.32886 21.8359 4.93917 21.5887 5.42698C21.2693 6.05917 20.6196 6.20792 20.6196 6.20792C24.0299 9.61823 23.7871 12.4707 24.3078 15.5201Z" fill="url(#paint6_radial_2613_2691)"/>
<path d="M11.9944 1.82663C11.6838 1.97757 11.4082 2.12851 11.1697 2.25757C10.8963 2.40632 9.12878 3.38632 7.89284 2.68413C7.13159 2.25101 7.13159 1.09601 7.13378 1.05444C6.78378 1.50069 5.72502 4.69226 8.82034 4.90444C10.1547 4.99632 10.9794 3.83257 11.465 2.84601C11.6422 2.48944 11.92 1.96663 11.9944 1.82663Z" fill="url(#paint7_radial_2613_2691)"/>
<path d="M18.3141 1.27994C20.3966 1.84432 21.4138 2.90307 21.7528 4.32057C21.8534 4.73619 21.9716 8.61244 14.5713 4.20682C11.8194 2.56838 12.5697 1.54244 12.8934 1.42651C14.1513 0.969318 15.98 0.647755 18.3141 1.27994Z" fill="url(#paint8_radial_2613_2691)"/>
<path d="M7.12522 1.05467C7.12084 1.05686 7.11647 1.05904 7.10772 1.06123H7.10553C6.84084 1.17279 4.75834 2.13529 5.53709 4.54811L7.75303 4.90467C5.79303 2.92061 7.13397 1.05029 7.13397 1.05029L7.12522 1.05467Z" fill="url(#paint9_radial_2613_2691)"/>
<path d="M6.9059 4.77123L5.53653 4.55029C5.48403 4.55029 5.30028 4.56779 5.20184 4.58092C4.43184 4.68811 3.52184 5.08623 3.03184 6.10779C2.50247 7.20592 2.51778 8.14873 2.65997 8.77873C2.70153 8.99092 2.78684 9.22717 2.78684 9.22717C2.78684 9.22717 3.46496 8.58404 5.07715 8.54248L6.9059 4.77123Z" fill="url(#paint10_radial_2613_2691)"/>
<path d="M2.72098 9.27916C2.04723 9.87854 1.13723 11.2129 1.8088 12.8667C2.31411 14.1157 4.11223 14.6582 4.11223 14.6582C4.11223 14.6648 4.47098 14.7698 4.65692 14.7698L5.07692 8.5376C4.21505 8.5376 3.38817 8.79572 2.85223 9.1676C2.85661 9.18072 2.7188 9.27041 2.72098 9.27916Z" fill="url(#paint11_radial_2613_2691)"/>
<defs>
<radialGradient id="paint0_radial_2613_2691" cx="0" cy="0" r="1" gradientUnits="userSpaceOnUse" gradientTransform="translate(18.1501 23.1034) scale(6.66509 3.27389)">
<stop offset="0.728" stop-color="#6D4C41" stop-opacity="0"/>
<stop offset="1" stop-color="#6D4C41"/>
</radialGradient>
<radialGradient id="paint1_radial_2613_2691" cx="0" cy="0" r="1" gradientTransform="matrix(-1.78389 0.834727 -0.61925 -1.32339 24.7148 22.1117)" gradientUnits="userSpaceOnUse">
<stop offset="0.663" stop-color="#6D4C41"/>
<stop offset="1" stop-color="#6D4C41" stop-opacity="0"/>
</radialGradient>
<radialGradient id="paint2_radial_2613_2691" cx="0" cy="0" r="1" gradientTransform="matrix(-0.645407 -8.62734 7.19031 -0.538127 19.6103 16.5407)" gradientUnits="userSpaceOnUse">
<stop offset="0.725" stop-color="#6D4C41" stop-opacity="0"/>
<stop offset="1" stop-color="#6D4C41"/>
</radialGradient>
<radialGradient id="paint3_radial_2613_2691" cx="0" cy="0" r="1" gradientTransform="matrix(0.645407 -8.62734 -7.19031 -0.538127 8.39595 16.5405)" gradientUnits="userSpaceOnUse">
<stop offset="0.725" stop-color="#6D4C41" stop-opacity="0"/>
<stop offset="1" stop-color="#6D4C41"/>
</radialGradient>
<radialGradient id="paint4_radial_2613_2691" cx="0" cy="0" r="1" gradientUnits="userSpaceOnUse" gradientTransform="translate(9.85598 23.1034) rotate(180) scale(6.66509 3.27389)">
<stop offset="0.728" stop-color="#6D4C41" stop-opacity="0"/>
<stop offset="1" stop-color="#6D4C41"/>
</radialGradient>
<radialGradient id="paint5_radial_2613_2691" cx="0" cy="0" r="1" gradientTransform="matrix(1.78389 0.834727 0.61925 -1.32339 3.29145 22.1119)" gradientUnits="userSpaceOnUse">
<stop offset="0.663" stop-color="#6D4C41"/>
<stop offset="1" stop-color="#6D4C41" stop-opacity="0"/>
</radialGradient>
<radialGradient id="paint6_radial_2613_2691" cx="0" cy="0" r="1" gradientTransform="matrix(3.11938 9.64919 7.15957 -2.31418 19.1282 11.9758)" gradientUnits="userSpaceOnUse">
<stop offset="0.699" stop-color="#6D4C41" stop-opacity="0"/>
<stop offset="1" stop-color="#6D4C41"/>
</radialGradient>
<radialGradient id="paint7_radial_2613_2691" cx="0" cy="0" r="1" gradientTransform="matrix(2.34329 1.2566 1.48979 -2.77856 9.24184 0.919251)" gradientUnits="userSpaceOnUse">
<stop offset="0.58" stop-color="#6D4C41"/>
<stop offset="1" stop-color="#6D4C41" stop-opacity="0"/>
</radialGradient>
<radialGradient id="paint8_radial_2613_2691" cx="0" cy="0" r="1" gradientTransform="matrix(-7.66561 -3.22384 -1.78357 4.31998 15.1843 5.74873)" gradientUnits="userSpaceOnUse">
<stop offset="0.699" stop-color="#6D4C41" stop-opacity="0"/>
<stop offset="1" stop-color="#6D4C41"/>
</radialGradient>
<radialGradient id="paint9_radial_2613_2691" cx="0" cy="0" r="1" gradientUnits="userSpaceOnUse" gradientTransform="translate(8.17456 3.34495) scale(2.44059 2.98558)">
<stop offset="0.702" stop-color="#6D4C41" stop-opacity="0"/>
<stop offset="1" stop-color="#6D4C41"/>
</radialGradient>
<radialGradient id="paint10_radial_2613_2691" cx="0" cy="0" r="1" gradientTransform="matrix(-4.42034 -1.18919 -1.11321 4.13655 7.83811 7.65297)" gradientUnits="userSpaceOnUse">
<stop offset="0.66" stop-color="#6D4C41" stop-opacity="0"/>
<stop offset="1" stop-color="#6D4C41"/>
</radialGradient>
<radialGradient id="paint11_radial_2613_2691" cx="0" cy="0" r="1" gradientTransform="matrix(4.76103 0.655019 0.920295 -6.69004 6.7526 12.0724)" gradientUnits="userSpaceOnUse">
<stop offset="0.598" stop-color="#6D4C41" stop-opacity="0"/>
<stop offset="1" stop-color="#6D4C41"/>
</radialGradient>
</defs>
</svg>
