<svg viewBox="0 0 81 23" fill="none" xmlns="http://www.w3.org/2000/svg">
<path d="M0.522655 1.03125H7.27266C8.49141 1.03125 9.52266 1.21484 10.3664 1.58203C11.2102 1.94922 11.843 2.46094 12.2648 3.11719C12.6867 3.76562 12.8977 4.52344 12.8977 5.39062C12.8977 6.35156 12.6164 7.14453 12.0539 7.76953C11.4992 8.39453 10.7648 8.8125 9.85078 9.02344V9.1875C10.507 9.21875 11.1164 9.40625 11.6789 9.75C12.2492 10.0938 12.7062 10.5742 13.05 11.1914C13.4016 11.8008 13.5773 12.5078 13.5773 13.3125C13.5773 14.2266 13.3508 15.0352 12.8977 15.7383C12.4523 16.4414 11.7883 16.9961 10.9055 17.4023C10.0305 17.8008 8.96797 18 7.71797 18H0.522655V1.03125ZM7.01484 15.0938C7.99922 15.0938 8.72969 14.9102 9.20625 14.543C9.68281 14.168 9.92109 13.6484 9.92109 12.9844C9.92109 12.5078 9.80391 12.0859 9.56953 11.7188C9.34297 11.3516 9.01875 11.0664 8.59687 10.8633C8.175 10.6523 7.67891 10.5469 7.10859 10.5469H4.03828V15.0938H7.01484ZM6.75703 8.13281C7.24922 8.13281 7.69062 8.04688 8.08125 7.875C8.47187 7.69531 8.77656 7.44141 8.99531 7.11328C9.22187 6.78516 9.33516 6.39844 9.33516 5.95312C9.33516 5.32812 9.1125 4.82812 8.66719 4.45312C8.22969 4.07812 7.61641 3.89062 6.82734 3.89062H4.03828V8.13281H6.75703ZM20.8992 18.2578C19.6102 18.2578 18.493 17.9922 17.5477 17.4609C16.6102 16.9297 15.8875 16.1719 15.3797 15.1875C14.8719 14.1953 14.618 13.0312 14.618 11.6953C14.618 10.3906 14.868 9.24219 15.368 8.25C15.8758 7.25 16.5945 6.47656 17.5242 5.92969C18.4539 5.38281 19.532 5.10938 20.7586 5.10938C21.8992 5.10938 22.9187 5.35156 23.8172 5.83594C24.7234 6.3125 25.4344 7.03516 25.95 8.00391C26.4734 8.97266 26.7352 10.1562 26.7352 11.5547V12.5391H18.0398C18.0398 13.1719 18.157 13.7227 18.3914 14.1914C18.6336 14.6602 18.9734 15.0234 19.4109 15.2812C19.8562 15.5312 20.3758 15.6562 20.9695 15.6562C21.5398 15.6562 22.032 15.543 22.4461 15.3164C22.8602 15.082 23.157 14.7656 23.3367 14.3672H26.6414C26.4773 15.1484 26.1414 15.832 25.6336 16.418C25.1258 17.0039 24.4656 17.457 23.6531 17.7773C22.8484 18.0977 21.9305 18.2578 20.8992 18.2578ZM23.4539 10.3594C23.4539 9.85156 23.3406 9.39844 23.1141 9C22.8953 8.59375 22.5867 8.27734 22.1883 8.05078C21.7898 7.82422 21.3367 7.71094 20.8289 7.71094C20.3133 7.71094 19.8445 7.82812 19.4227 8.0625C19.0086 8.29688 18.6766 8.61719 18.4266 9.02344C18.1844 9.42969 18.0555 9.875 18.0398 10.3594H23.4539ZM27.7055 14.4375C27.7055 13.125 28.1469 12.1641 29.0297 11.5547C29.9125 10.9453 31.0492 10.6016 32.4398 10.5234C33.2992 10.4688 34.3539 10.4141 35.6039 10.3594V9.32812C35.5883 8.79688 35.4047 8.38281 35.0531 8.08594C34.7016 7.78906 34.2055 7.64062 33.5648 7.64062C32.9867 7.64062 32.5141 7.76562 32.1469 8.01562C31.7797 8.26562 31.5492 8.60938 31.4555 9.04688H28.1508C28.2211 8.29688 28.4789 7.625 28.9242 7.03125C29.3773 6.4375 30.0062 5.96875 30.8109 5.625C31.6156 5.28125 32.5648 5.10938 33.6586 5.10938C34.6273 5.10938 35.518 5.26172 36.3305 5.56641C37.1508 5.87109 37.807 6.34766 38.2992 6.99609C38.7992 7.63672 39.0492 8.44531 39.0492 9.42188V18H35.768V16.2422H35.6742C35.3383 16.8594 34.8578 17.3477 34.2328 17.707C33.6156 18.0586 32.8539 18.2344 31.9477 18.2344C31.1195 18.2344 30.3852 18.0938 29.7445 17.8125C29.1117 17.5234 28.6117 17.0938 28.2445 16.5234C27.8852 15.9531 27.7055 15.2578 27.7055 14.4375ZM31.0336 14.3438C31.0336 14.8203 31.2055 15.1914 31.5492 15.457C31.9008 15.7148 32.3617 15.8438 32.932 15.8438C33.4477 15.8438 33.9086 15.7383 34.3148 15.5273C34.7289 15.3164 35.0492 15.0273 35.2758 14.6602C35.5023 14.293 35.6117 13.8906 35.6039 13.4531V12.5273C35.2367 12.5352 34.7836 12.5547 34.2445 12.5859C33.7055 12.6172 33.2914 12.6484 33.0023 12.6797C32.393 12.7422 31.9125 12.9141 31.5609 13.1953C31.2094 13.4766 31.0336 13.8594 31.0336 14.3438ZM49.2539 5.27344H52.7227V18H49.3945V15.7031H49.2539C48.9492 16.4609 48.4609 17.0625 47.7891 17.5078C47.125 17.9453 46.3242 18.1641 45.3867 18.1641C44.5352 18.1641 43.7852 17.9727 43.1367 17.5898C42.4961 17.207 41.9961 16.6562 41.6367 15.9375C41.2773 15.2109 41.0977 14.3594 41.0977 13.3828V5.27344H44.5664V12.7734C44.5664 13.5234 44.7656 14.1211 45.1641 14.5664C45.5703 15.0117 46.1133 15.2344 46.793 15.2344C47.2305 15.2344 47.6367 15.1328 48.0117 14.9297C48.3867 14.7188 48.6875 14.4141 48.9141 14.0156C49.1406 13.6172 49.2539 13.1406 49.2539 12.5859V5.27344ZM61.5211 7.875H59.1305V14.0859C59.1305 14.5547 59.232 14.8828 59.4352 15.0703C59.6383 15.2578 59.9352 15.3594 60.3258 15.375C60.8258 15.375 61.2867 15.3516 61.7086 15.3047V18.0469C61.2945 18.125 60.6773 18.1641 59.857 18.1641C58.5523 18.1641 57.525 17.8633 56.775 17.2617C56.025 16.6602 55.6539 15.7656 55.6617 14.5781V7.875H53.9039V5.27344H55.6617V2.22656H59.1305V5.27344H61.5211V7.875ZM63.1008 5.27344H66.5695V18H63.1008V5.27344ZM64.8352 3.60938C64.4914 3.60938 64.1711 3.53125 63.8742 3.375C63.5852 3.21094 63.3547 2.99609 63.1828 2.73047C63.0187 2.45703 62.9367 2.16406 62.9367 1.85156C62.9367 1.53125 63.0187 1.23438 63.1828 0.960938C63.3547 0.6875 63.5852 0.472656 63.8742 0.316406C64.1711 0.152344 64.4914 0.0703125 64.8352 0.0703125C65.1711 0.0703125 65.4836 0.152344 65.7727 0.316406C66.0617 0.472656 66.2883 0.6875 66.4523 0.960938C66.6242 1.23438 66.7102 1.53125 66.7102 1.85156C66.7102 2.16406 66.6242 2.45703 66.4523 2.73047C66.2883 2.99609 66.0617 3.21094 65.7727 3.375C65.4836 3.53125 65.1711 3.60938 64.8352 3.60938ZM77.0789 15.9609H76.9617C76.6648 16.5938 76.2234 17.1289 75.6375 17.5664C75.0516 17.9961 74.2898 18.2109 73.3523 18.2109C72.368 18.2109 71.4852 17.957 70.7039 17.4492C69.9227 16.9336 69.3055 16.1836 68.8523 15.1992C68.3992 14.207 68.1727 13.0234 68.1727 11.6484C68.1727 10.2422 68.4031 9.05078 68.8641 8.07422C69.325 7.08984 69.9461 6.35156 70.7273 5.85938C71.5164 5.35938 72.3914 5.10938 73.3523 5.10938C74.3133 5.10938 75.0828 5.33203 75.6609 5.77734C76.2391 6.22266 76.6727 6.76562 76.9617 7.40625H77.1258V5.27344H80.5477V22.7812H77.0789V15.9609ZM74.4305 15.4453C75.0008 15.4453 75.4891 15.2891 75.8953 14.9766C76.3016 14.6562 76.6102 14.2109 76.8211 13.6406C77.0398 13.0625 77.1492 12.3906 77.1492 11.625C77.1492 10.4688 76.9109 9.55469 76.4344 8.88281C75.9578 8.21094 75.2898 7.875 74.4305 7.875C73.5711 7.875 72.907 8.21484 72.4383 8.89453C71.9695 9.57422 71.7352 10.4844 71.7352 11.625C71.7352 12.7812 71.9695 13.707 72.4383 14.4023C72.907 15.0977 73.5711 15.4453 74.4305 15.4453Z" fill="#E46198"/>
</svg>
